<svg width="396" height="320" viewBox="0 0 396 320" fill="none" xmlns="http://www.w3.org/2000/svg">
<path d="M198 296.758C276.068 296.758 339.354 260.219 339.354 215.146C339.354 170.073 276.068 133.534 198 133.534C119.933 133.534 56.6465 170.073 56.6465 215.146C56.6465 260.219 119.933 296.758 198 296.758Z" fill="#F0F0F0"/>
<path d="M168.75 276.988C195.67 276.988 217.494 264.389 217.494 248.848C217.494 233.307 195.67 220.708 168.75 220.708C141.829 220.708 120.006 233.307 120.006 248.848C120.006 264.389 141.829 276.988 168.75 276.988Z" fill="#E0E0E0"/>
<path d="M307.368 213.64L301.65 210.34C301.65 210.34 300.252 198.1 301.182 188.62C302.49 175.3 311.094 159.268 321.354 163.036C331.614 166.804 316.65 180.364 313.32 191.662C309.99 202.96 307.368 213.64 307.368 213.64Z" fill="#407BFF"/>
<path opacity="0.15" d="M307.368 213.64L301.65 210.34C301.65 210.34 300.252 198.1 301.182 188.62C302.49 175.3 311.094 159.268 321.354 163.036C331.614 166.804 316.65 180.364 313.32 191.662C309.99 202.96 307.368 213.64 307.368 213.64Z" fill="black"/>
<path d="M304.362 212.254C304.453 212.249 304.539 212.209 304.6 212.142C304.662 212.074 304.695 211.985 304.692 211.894C303.69 182.296 318.426 167.404 318.57 167.26C318.635 167.195 318.671 167.106 318.671 167.014C318.671 166.922 318.635 166.833 318.57 166.768C318.538 166.736 318.5 166.71 318.458 166.693C318.417 166.676 318.372 166.667 318.327 166.667C318.281 166.667 318.237 166.676 318.195 166.693C318.153 166.71 318.115 166.736 318.084 166.768C317.928 166.912 302.982 182.02 303.996 211.918C303.997 211.964 304.008 212.01 304.027 212.052C304.047 212.094 304.074 212.132 304.108 212.163C304.142 212.194 304.182 212.218 304.226 212.234C304.269 212.25 304.315 212.256 304.362 212.254Z" fill="white"/>
<path d="M310.962 215.698L306.894 213.352C306.894 213.352 306.198 204.952 310.32 194.752C313.92 185.872 322.8 178.498 327.276 180.046C331.752 181.594 331.638 184.768 329.454 188.098C327.27 191.428 314.004 199.354 310.962 215.698Z" fill="#407BFF"/>
<path d="M308.813 214.81C308.905 214.808 308.993 214.771 309.057 214.706C309.122 214.641 309.16 214.554 309.161 214.462C309.077 195.742 326.651 183.094 326.831 182.968C326.869 182.942 326.901 182.909 326.925 182.871C326.949 182.833 326.966 182.79 326.973 182.745C326.98 182.7 326.978 182.654 326.967 182.61C326.956 182.566 326.937 182.524 326.909 182.488C326.856 182.414 326.776 182.364 326.686 182.348C326.597 182.332 326.504 182.352 326.429 182.404C326.249 182.53 308.387 195.394 308.465 214.462C308.465 214.554 308.502 214.643 308.567 214.708C308.632 214.773 308.721 214.81 308.813 214.81Z" fill="white"/>
<path d="M95.7958 206.29L101.076 202.726C101.076 202.726 103.398 188.926 101.238 176.752C98.2018 159.676 86.3998 154 82.1998 155.8C77.9998 157.6 77.0998 162.682 84.9418 172.426C89.5918 178.156 95.6338 190.39 95.7958 206.29Z" fill="#407BFF"/>
<g opacity="0.15">
<path d="M95.7958 206.29L101.076 202.726C101.076 202.726 103.398 188.926 101.238 176.752C98.2018 159.676 86.3998 154 82.1998 155.8C77.9998 157.6 77.0998 162.682 84.9418 172.426C89.5918 178.156 95.6338 190.39 95.7958 206.29Z" fill="black"/>
</g>
<path d="M97.6081 199.45H97.5541C97.5002 199.447 97.4476 199.432 97.3998 199.407C97.3519 199.382 97.3099 199.347 97.2765 199.304C97.2431 199.262 97.219 199.213 97.2058 199.16C97.1927 199.108 97.1908 199.053 97.2001 199C99.1081 182.926 92.3221 165.478 84.9361 158.536C84.8651 158.464 84.8252 158.367 84.8252 158.266C84.8252 158.165 84.8651 158.068 84.9361 157.996C84.9713 157.96 85.0133 157.931 85.0597 157.912C85.1061 157.892 85.1559 157.882 85.2061 157.882C85.2564 157.882 85.3062 157.892 85.3526 157.912C85.3989 157.931 85.4409 157.96 85.4761 157.996C93.0001 165.064 99.9121 182.8 97.9801 199.108C97.9688 199.2 97.9252 199.285 97.857 199.347C97.7889 199.41 97.7007 199.446 97.6081 199.45Z" fill="white"/>
<path d="M81.9717 215.614C81.1317 216.118 78.6837 214.3 78.0057 213.862C76.8437 213.103 75.8972 212.058 75.2577 210.826C74.5403 209.429 74.274 207.844 74.4957 206.29C74.6186 205.479 74.797 204.677 75.0297 203.89C75.2397 203.104 75.4497 202.318 75.6297 201.526C75.8958 200.756 75.998 199.938 75.9297 199.126C75.6957 197.524 74.2497 196.426 72.9297 195.484C71.4777 194.434 69.9297 193.048 69.9297 191.116C70.0037 189.598 70.5847 188.149 71.5797 187C72.4797 185.8 73.5597 184.756 74.3697 183.502C75.0031 182.633 75.3264 181.577 75.2877 180.502C75.1834 179.84 74.9467 179.205 74.5917 178.636C73.8837 177.388 72.9657 176.236 72.4677 174.91C71.9697 173.584 72.0057 171.88 73.0677 170.89C73.9137 170.08 75.2037 169.948 76.3737 170.002C77.4762 170.112 78.5412 170.462 79.4937 171.028C82.5957 172.678 84.4197 176.278 87.7017 177.532C88.9677 178.012 90.3477 178.096 91.6617 178.42C92.9757 178.744 94.3317 179.386 94.9617 180.58C96.2037 182.95 94.0377 185.938 94.9257 188.452C95.7177 190.684 97.9257 191.5 99.1737 193.498C99.6802 194.385 99.8904 195.411 99.7737 196.426C99.7033 198.139 99.3189 199.825 98.6397 201.4C97.8585 203.033 96.9768 204.616 95.9997 206.14C95.9997 206.14 82.0977 215.536 81.9717 215.614Z" fill="#407BFF"/>
<path d="M90.0833 210.64C90.0328 210.639 89.9831 210.628 89.9368 210.608C89.8905 210.588 89.8486 210.559 89.8135 210.523C89.7784 210.487 89.7508 210.444 89.7322 210.397C89.7136 210.35 89.7045 210.3 89.7053 210.25C90.0413 195.058 82.5653 178.45 77.2733 173.65C77.1981 173.582 77.1527 173.487 77.1471 173.386C77.1415 173.285 77.176 173.186 77.2433 173.11C77.2785 173.074 77.3205 173.045 77.3668 173.026C77.4132 173.006 77.463 172.996 77.5133 172.996C77.5636 172.996 77.6133 173.006 77.6597 173.026C77.7061 173.045 77.7481 173.074 77.7833 173.11C83.1833 177.97 90.8093 194.866 90.4673 210.268C90.4665 210.318 90.4559 210.367 90.4362 210.412C90.4165 210.458 90.388 210.499 90.3523 210.533C90.3167 210.568 90.2746 210.595 90.2284 210.613C90.1822 210.632 90.1329 210.641 90.0833 210.64Z" fill="white"/>
<path d="M87.2812 192.13C87.2458 192.139 87.2087 192.139 87.1732 192.13C82.2652 190.714 76.1812 190.57 76.1212 190.564C76.0711 190.563 76.0216 190.552 75.9756 190.532C75.9296 190.512 75.8881 190.483 75.8535 190.447C75.8189 190.411 75.7918 190.368 75.7739 190.321C75.756 190.274 75.7476 190.224 75.7492 190.174C75.7483 190.123 75.7579 190.073 75.7774 190.026C75.7969 189.979 75.8259 189.937 75.8625 189.902C75.8992 189.867 75.9427 189.84 75.9903 189.823C76.038 189.806 76.0887 189.799 76.1392 189.802C76.1992 189.802 82.3792 189.952 87.3832 191.392C87.4799 191.421 87.5612 191.487 87.6095 191.576C87.6578 191.665 87.6692 191.769 87.6412 191.866C87.6179 191.943 87.5701 192.01 87.5052 192.058C87.4403 192.106 87.3617 192.131 87.2812 192.13Z" fill="white"/>
<path d="M228.696 195.844L226.422 194.53C226.043 194.284 225.728 193.952 225.502 193.561C225.275 193.17 225.145 192.731 225.12 192.28V97.768C225.145 97.3177 225.275 96.8795 225.5 96.4887C225.725 96.0979 226.039 95.7654 226.416 95.518L289.626 59.026C290.029 58.822 290.474 58.7157 290.925 58.7157C291.376 58.7157 291.821 58.822 292.224 59.026L294.498 60.34C294.877 60.586 295.192 60.918 295.419 61.309C295.645 61.7 295.776 62.1389 295.8 62.59V157.102C295.775 157.552 295.645 157.991 295.42 158.381C295.195 158.772 294.881 159.105 294.504 159.352L231.294 195.85C230.891 196.055 230.446 196.161 229.994 196.16C229.543 196.158 229.098 196.05 228.696 195.844Z" fill="#455A64"/>
<path d="M295.8 62.38C295.71 61.708 295.164 61.462 294.51 61.84L231.294 98.338C230.912 98.5778 230.596 98.9101 230.376 99.304L225.498 96.49C225.716 96.0931 226.032 95.7585 226.416 95.518L289.626 59.026C290.029 58.822 290.474 58.7157 290.925 58.7157C291.376 58.7157 291.821 58.822 292.224 59.026L294.498 60.34C294.849 60.5661 295.147 60.8655 295.372 61.2176C295.597 61.5697 295.743 61.9662 295.8 62.38Z" fill="#455A64"/>
<path d="M231.072 195.952C230.688 196.108 230.275 196.179 229.861 196.161C229.447 196.144 229.041 196.038 228.672 195.85L226.392 194.53C226.015 194.283 225.701 193.95 225.476 193.559C225.251 193.169 225.12 192.73 225.096 192.28V97.768C225.111 97.3168 225.241 96.877 225.474 96.49L230.352 99.304C230.115 99.6915 229.982 100.134 229.968 100.588V195.1C229.992 195.844 230.46 196.186 231.072 195.952Z" fill="#263238"/>
<path d="M229.992 100.6V195.1C229.992 195.928 230.592 196.264 231.294 195.85L294.504 159.352C294.881 159.105 295.195 158.772 295.42 158.381C295.645 157.991 295.775 157.552 295.8 157.102V62.59C295.8 61.762 295.2 61.426 294.504 61.84L231.294 98.338C230.914 98.5851 230.597 98.9191 230.371 99.3123C230.145 99.7055 230.015 100.147 229.992 100.6Z" fill="#37474F"/>
<path d="M215.232 136.6C214.416 136.114 210.63 133.96 210.432 133.846C210.278 133.754 210.146 133.628 210.047 133.479C209.947 133.329 209.883 133.159 209.858 132.981C209.833 132.803 209.849 132.622 209.904 132.45C209.958 132.279 210.051 132.123 210.174 131.992L225.12 115.96L229.992 118.756L215.052 134.8C214.934 134.925 214.845 135.074 214.79 135.236C214.735 135.398 214.715 135.57 214.732 135.741C214.75 135.911 214.803 136.076 214.889 136.225C214.975 136.373 215.092 136.501 215.232 136.6Z" fill="#455A64"/>
<path d="M229.992 118.774L215.052 134.8C214.886 134.977 214.778 135.2 214.741 135.44C214.705 135.68 214.742 135.926 214.848 136.144C214.954 136.363 215.123 136.544 215.334 136.664C215.546 136.784 215.788 136.837 216.03 136.816L229.992 135.664V118.774Z" fill="#37474F"/>
<path d="M262.896 89.9201C270.264 85.6661 276.234 89.1161 276.234 97.6241C276.234 106.132 270.264 116.47 262.896 120.724C255.528 124.978 249.558 121.528 249.558 113.026C249.558 104.524 255.528 94.1741 262.896 89.9201Z" fill="#407BFF"/>
<path d="M262.8 96.6161C265.2 95.2361 267.126 96.3521 267.126 99.1121C267.044 100.612 266.61 102.072 265.858 103.373C265.106 104.674 264.059 105.78 262.8 106.6C260.4 107.98 258.468 106.864 258.468 104.104C258.55 102.603 258.985 101.143 259.738 99.8419C260.491 98.5408 261.54 97.4356 262.8 96.6161Z" fill="white"/>
<path d="M271.332 111.328C271.332 106.798 268.146 104.956 264.222 107.224L261.768 108.64C257.844 110.908 254.658 116.44 254.658 120.958V122.2C255.399 122.437 256.172 122.556 256.95 122.554C259.055 122.483 261.105 121.862 262.896 120.754C266.307 118.653 269.192 115.801 271.332 112.414V111.328Z" fill="white"/>
<path d="M254.447 162.838L271.344 153.082C272.064 152.668 272.646 153.004 272.646 153.832V159.274C272.621 159.725 272.49 160.164 272.264 160.555C272.038 160.946 271.722 161.278 271.344 161.524L254.447 171.28C253.727 171.694 253.146 171.358 253.146 170.53V165.088C253.17 164.637 253.301 164.198 253.527 163.807C253.753 163.416 254.069 163.084 254.447 162.838Z" fill="#407BFF"/>
<path d="M246.174 150.682L279.6 131.374C280.458 130.876 281.16 131.278 281.16 132.274V134.296C281.13 134.837 280.974 135.364 280.703 135.833C280.432 136.302 280.054 136.7 279.6 136.996L246.156 156.304C245.298 156.802 244.602 156.4 244.602 155.404V153.4C244.629 152.855 244.786 152.324 245.059 151.851C245.333 151.378 245.715 150.978 246.174 150.682Z" fill="#FAFAFA"/>
<path d="M250.086 136.708C250.542 136.444 250.896 136.402 251.148 136.588C251.4 136.774 251.526 137.188 251.526 137.824C251.539 138.404 251.409 138.979 251.148 139.498C250.912 139.967 250.543 140.355 250.086 140.614L249.186 141.136V143.074C249.184 143.141 249.168 143.206 249.138 143.266C249.117 143.32 249.079 143.366 249.03 143.398L248.574 143.662C248.558 143.674 248.539 143.68 248.52 143.68C248.5 143.68 248.482 143.674 248.466 143.662C248.434 143.621 248.419 143.57 248.424 143.518V137.908C248.423 137.842 248.438 137.776 248.466 137.716C248.489 137.663 248.526 137.617 248.574 137.584L250.086 136.708ZM249.186 140.05L250.056 139.546C250.266 139.427 250.443 139.258 250.572 139.054C250.708 138.813 250.775 138.539 250.764 138.262C250.764 137.938 250.698 137.752 250.572 137.698C250.483 137.676 250.39 137.675 250.301 137.695C250.211 137.715 250.128 137.755 250.056 137.812L249.186 138.316V140.05Z" fill="#FAFAFA"/>
<path d="M254.039 134.422C254.099 134.386 254.147 134.386 254.177 134.422C254.216 134.476 254.242 134.537 254.255 134.602L255.641 139.294C255.641 139.294 255.641 139.33 255.641 139.348C255.641 139.415 255.624 139.481 255.593 139.54C255.572 139.594 255.534 139.641 255.485 139.672L255.077 139.906C255.005 139.948 254.951 139.954 254.921 139.906C254.892 139.876 254.872 139.839 254.861 139.798L254.615 138.976L252.815 140.008L252.575 141.112C252.558 141.172 252.536 141.23 252.509 141.286C252.48 141.359 252.424 141.419 252.353 141.454L251.945 141.688C251.93 141.701 251.911 141.708 251.891 141.708C251.872 141.708 251.853 141.701 251.837 141.688C251.806 141.649 251.791 141.6 251.795 141.55C251.792 141.528 251.792 141.506 251.795 141.484L253.175 135.196C253.192 135.104 253.218 135.013 253.253 134.926C253.283 134.863 253.331 134.811 253.391 134.776L254.039 134.422ZM254.351 138.058L253.751 135.94L253.151 138.772L254.351 138.058Z" fill="#FAFAFA"/>
<path d="M257.742 132.196C257.943 132.069 258.171 131.993 258.408 131.974C258.575 131.959 258.743 131.997 258.888 132.082C259.02 132.168 259.122 132.291 259.182 132.436C259.248 132.584 259.284 132.743 259.29 132.904C259.294 132.971 259.28 133.037 259.248 133.096C259.227 133.15 259.189 133.197 259.14 133.228L258.744 133.456C258.678 133.492 258.63 133.498 258.6 133.456C258.563 133.432 258.532 133.399 258.51 133.36C258.486 133.306 258.451 133.258 258.408 133.217C258.365 133.177 258.314 133.146 258.258 133.126C258.075 133.1 257.89 133.147 257.742 133.258C257.645 133.321 257.553 133.391 257.466 133.468C257.377 133.55 257.298 133.643 257.232 133.744C257.168 133.842 257.116 133.946 257.076 134.056C257.041 134.16 257.022 134.27 257.022 134.38C257.015 134.481 257.034 134.582 257.076 134.674C257.095 134.706 257.121 134.734 257.152 134.753C257.183 134.773 257.219 134.785 257.256 134.788C257.367 134.807 257.481 134.807 257.592 134.788L258.114 134.674C258.309 134.616 258.511 134.592 258.714 134.602C258.859 134.602 259 134.648 259.116 134.734C259.226 134.826 259.305 134.95 259.344 135.088C259.403 135.282 259.429 135.485 259.422 135.688C259.422 135.956 259.383 136.223 259.308 136.48C259.235 136.745 259.128 136.999 258.99 137.236C258.845 137.479 258.672 137.705 258.474 137.908C258.272 138.117 258.042 138.297 257.79 138.442C257.605 138.555 257.402 138.634 257.19 138.676C257.017 138.709 256.839 138.695 256.674 138.634C256.524 138.564 256.4 138.449 256.32 138.304C256.222 138.119 256.169 137.913 256.164 137.704C256.163 137.636 256.178 137.568 256.206 137.506C256.233 137.455 256.272 137.412 256.32 137.38L256.716 137.152C256.776 137.116 256.824 137.104 256.86 137.122C256.896 137.14 256.92 137.17 256.944 137.224C256.969 137.286 257.001 137.344 257.04 137.398C257.077 137.45 257.13 137.49 257.19 137.512C257.269 137.53 257.351 137.53 257.43 137.512C257.557 137.482 257.679 137.431 257.79 137.362C257.906 137.296 258.017 137.219 258.12 137.134C258.322 136.974 258.482 136.769 258.588 136.534C258.636 136.414 258.661 136.286 258.66 136.156C258.666 136.109 258.662 136.061 258.648 136.016C258.635 135.971 258.612 135.928 258.582 135.892C258.55 135.863 258.511 135.842 258.47 135.83C258.429 135.817 258.385 135.814 258.342 135.82C258.206 135.826 258.071 135.848 257.94 135.886C257.784 135.922 257.604 135.964 257.394 136C257.233 136.04 257.067 136.052 256.902 136.036C256.772 136.028 256.649 135.975 256.554 135.886C256.45 135.784 256.377 135.655 256.344 135.514C256.296 135.306 256.274 135.092 256.278 134.878C256.278 134.614 256.316 134.351 256.392 134.098C256.464 133.838 256.569 133.588 256.704 133.354C256.834 133.122 256.991 132.907 257.172 132.712C257.337 132.514 257.529 132.34 257.742 132.196Z" fill="#FAFAFA"/>
<path d="M261.684 129.928C261.883 129.797 262.112 129.719 262.35 129.7C262.517 129.686 262.685 129.723 262.83 129.808C262.958 129.896 263.058 130.019 263.118 130.162C263.184 130.31 263.22 130.469 263.226 130.63C263.233 130.697 263.218 130.764 263.184 130.822C263.163 130.876 263.125 130.922 263.076 130.954L262.68 131.182C262.62 131.218 262.572 131.23 262.536 131.182C262.498 131.158 262.468 131.122 262.452 131.08C262.397 130.975 262.305 130.893 262.194 130.852C262.105 130.839 262.013 130.844 261.926 130.866C261.838 130.889 261.756 130.929 261.684 130.984C261.584 131.045 261.489 131.115 261.402 131.194C261.315 131.276 261.238 131.369 261.174 131.47C261.108 131.566 261.055 131.671 261.018 131.782C260.981 131.886 260.96 131.995 260.958 132.106C260.951 132.207 260.97 132.308 261.012 132.4C261.031 132.432 261.057 132.459 261.088 132.479C261.119 132.499 261.155 132.511 261.192 132.514C261.303 132.533 261.417 132.533 261.528 132.514L262.05 132.4C262.245 132.346 262.448 132.321 262.65 132.328C262.795 132.327 262.936 132.373 263.052 132.46C263.162 132.554 263.243 132.676 263.286 132.814C263.339 133.009 263.363 133.212 263.358 133.414C263.358 133.682 263.319 133.949 263.244 134.206C263.171 134.471 263.064 134.725 262.926 134.962C262.782 135.208 262.608 135.435 262.41 135.64C262.207 135.844 261.98 136.022 261.732 136.168C261.547 136.28 261.344 136.359 261.132 136.402C260.961 136.435 260.785 136.42 260.622 136.36C260.469 136.292 260.343 136.176 260.262 136.03C260.163 135.845 260.112 135.639 260.112 135.43C260.105 135.363 260.12 135.296 260.154 135.238C260.175 135.184 260.213 135.137 260.262 135.106L260.658 134.878C260.718 134.842 260.772 134.83 260.802 134.848C260.823 134.857 260.841 134.872 260.856 134.889C260.87 134.907 260.881 134.928 260.886 134.95C260.913 135.011 260.945 135.069 260.982 135.124C261.022 135.177 261.076 135.216 261.138 135.238C261.217 135.256 261.299 135.256 261.378 135.238C261.505 135.208 261.627 135.157 261.738 135.088C261.852 135.02 261.96 134.944 262.062 134.86C262.167 134.778 262.26 134.681 262.338 134.572C262.416 134.468 262.48 134.355 262.53 134.236C262.578 134.116 262.603 133.987 262.602 133.858C262.608 133.811 262.604 133.763 262.59 133.718C262.577 133.673 262.554 133.63 262.524 133.594C262.492 133.565 262.453 133.544 262.412 133.532C262.371 133.519 262.327 133.516 262.284 133.522C262.15 133.53 262.017 133.552 261.888 133.588C261.732 133.624 261.546 133.666 261.342 133.702C261.179 133.742 261.011 133.754 260.844 133.738C260.714 133.731 260.59 133.678 260.496 133.588C260.394 133.486 260.323 133.357 260.292 133.216C260.239 133.01 260.215 132.798 260.22 132.586C260.222 132.32 260.261 132.056 260.334 131.8C260.408 131.541 260.513 131.291 260.646 131.056C260.776 130.823 260.935 130.607 261.12 130.414C261.282 130.224 261.472 130.06 261.684 129.928Z" fill="#FAFAFA"/>
<path d="M266.058 130.678L265.572 133.552C265.558 133.638 265.533 133.723 265.5 133.804C265.477 133.869 265.432 133.924 265.374 133.96L264.918 134.224C264.858 134.26 264.816 134.26 264.786 134.224C264.746 134.175 264.723 134.114 264.72 134.05L264 128.98C264 128.98 264 128.932 264 128.914C264.002 128.847 264.018 128.782 264.048 128.722C264.071 128.669 264.108 128.623 264.156 128.59L264.57 128.35C264.605 128.336 264.643 128.336 264.678 128.35C264.714 128.35 264.738 128.398 264.75 128.494L265.224 131.908L265.638 129.346C265.649 129.282 265.667 129.22 265.692 129.16C265.716 129.084 265.767 129.02 265.836 128.98L266.298 128.71C266.364 128.674 266.412 128.68 266.442 128.71C266.468 128.748 266.486 128.791 266.496 128.836L266.916 130.918L267.39 126.958C267.396 126.88 267.418 126.804 267.456 126.736C267.484 126.691 267.521 126.652 267.564 126.622L267.978 126.382C267.994 126.37 268.013 126.364 268.032 126.364C268.051 126.364 268.07 126.37 268.086 126.382C268.103 126.402 268.116 126.425 268.124 126.449C268.133 126.474 268.136 126.5 268.134 126.526C268.136 126.55 268.136 126.574 268.134 126.598L267.414 132.496C267.402 132.582 267.38 132.667 267.348 132.748C267.321 132.812 267.275 132.866 267.216 132.904L266.754 133.168C266.7 133.198 266.658 133.198 266.628 133.168C266.598 133.113 266.573 133.055 266.556 132.994L266.058 130.678Z" fill="#FAFAFA"/>
<path d="M268.866 128.134C268.879 127.801 268.919 127.47 268.986 127.144C269.055 126.825 269.159 126.515 269.298 126.22C269.43 125.933 269.6 125.665 269.802 125.422C270.007 125.181 270.253 124.978 270.528 124.822C270.739 124.679 270.987 124.598 271.242 124.588C271.433 124.59 271.615 124.665 271.752 124.798C271.897 124.961 272.002 125.157 272.058 125.368C272.135 125.644 272.178 125.928 272.184 126.214C272.184 126.322 272.184 126.442 272.184 126.574C272.184 126.706 272.184 126.844 272.184 126.988C272.184 127.132 272.184 127.27 272.184 127.402C272.184 127.534 272.184 127.66 272.184 127.774C272.171 128.105 272.131 128.434 272.064 128.758C271.995 129.076 271.892 129.386 271.758 129.682C271.622 129.968 271.45 130.236 271.248 130.48C271.043 130.719 270.8 130.921 270.528 131.08C270.312 131.222 270.061 131.303 269.802 131.314C269.709 131.316 269.616 131.299 269.529 131.264C269.442 131.229 269.364 131.176 269.298 131.11C269.141 130.942 269.034 130.735 268.986 130.51C268.915 130.233 268.874 129.95 268.866 129.664C268.866 129.556 268.866 129.436 268.866 129.304C268.866 129.172 268.866 129.034 268.866 128.89C268.866 128.746 268.866 128.614 268.866 128.476C268.866 128.338 268.86 128.242 268.866 128.134ZM271.422 126.7C271.435 126.553 271.419 126.405 271.373 126.265C271.328 126.125 271.255 125.995 271.158 125.884C271.002 125.746 270.786 125.752 270.528 125.884C270.248 126.049 270.026 126.296 269.892 126.592C269.722 126.942 269.632 127.325 269.628 127.714C269.628 127.936 269.628 128.182 269.628 128.452C269.628 128.722 269.628 128.962 269.628 129.178C269.615 129.325 269.631 129.473 269.677 129.613C269.722 129.753 269.795 129.883 269.892 129.994C270.048 130.126 270.264 130.114 270.528 129.964C270.803 129.798 271.023 129.554 271.158 129.262C271.328 128.914 271.418 128.533 271.422 128.146C271.422 127.918 271.422 127.672 271.422 127.402C271.422 127.132 271.428 126.916 271.422 126.7Z" fill="#FAFAFA"/>
<path d="M274.8 122.428C275.274 122.158 275.628 122.116 275.874 122.314C276.02 122.475 276.128 122.666 276.192 122.873C276.255 123.081 276.272 123.299 276.24 123.514C276.245 123.922 276.182 124.327 276.054 124.714C275.932 125.074 275.743 125.408 275.496 125.698L276.276 127.396C276.279 127.424 276.279 127.452 276.276 127.48C276.277 127.534 276.264 127.588 276.24 127.636C276.224 127.68 276.194 127.717 276.156 127.744L275.676 128.02C275.598 128.062 275.544 128.068 275.508 128.02C275.477 127.989 275.45 127.952 275.43 127.912L274.692 126.31L273.942 126.742V128.77C273.943 128.836 273.928 128.902 273.9 128.962C273.876 129.014 273.839 129.06 273.792 129.094L273.336 129.358C273.321 129.371 273.302 129.378 273.282 129.378C273.263 129.378 273.243 129.371 273.228 129.358C273.211 129.34 273.198 129.318 273.19 129.294C273.181 129.27 273.178 129.245 273.18 129.22V123.61C273.182 123.543 273.198 123.478 273.228 123.418C273.249 123.364 273.287 123.318 273.336 123.286L274.8 122.428ZM273.954 125.656L274.8 125.2C275.007 125.085 275.184 124.922 275.316 124.726C275.455 124.495 275.522 124.227 275.508 123.958C275.508 123.634 275.442 123.454 275.316 123.418C275.134 123.393 274.949 123.441 274.8 123.55L273.984 124.018L273.954 125.656Z" fill="#FAFAFA"/>
<path d="M278.819 120.118C279.037 119.976 279.286 119.889 279.545 119.866C279.733 119.859 279.916 119.926 280.055 120.052C280.214 120.219 280.324 120.427 280.373 120.652C280.454 120.95 280.498 121.256 280.505 121.564C280.505 121.984 280.505 122.416 280.505 122.854C280.493 123.211 280.449 123.567 280.373 123.916C280.305 124.241 280.2 124.557 280.061 124.858C279.927 125.135 279.758 125.393 279.557 125.626C279.357 125.864 279.118 126.067 278.849 126.226L277.427 127C277.412 127.013 277.393 127.02 277.373 127.02C277.354 127.02 277.334 127.013 277.319 127C277.302 126.982 277.288 126.96 277.28 126.936C277.272 126.912 277.269 126.887 277.271 126.862V121.252C277.273 121.185 277.29 121.12 277.319 121.06C277.341 121.006 277.378 120.959 277.427 120.928L278.819 120.118ZM279.743 121.984C279.741 121.821 279.716 121.66 279.671 121.504C279.643 121.386 279.583 121.278 279.497 121.192C279.46 121.154 279.415 121.125 279.365 121.105C279.316 121.086 279.263 121.076 279.209 121.078C279.059 121.088 278.914 121.138 278.789 121.222L278.033 121.654V125.566L278.819 125.116C278.971 125.027 279.107 124.914 279.221 124.78C279.333 124.648 279.428 124.503 279.503 124.348C279.578 124.183 279.634 124.01 279.671 123.832C279.713 123.647 279.737 123.458 279.743 123.268C279.761 122.83 279.761 122.404 279.743 121.984Z" fill="#FAFAFA"/>
<path d="M196.428 33.034C197.464 33.2645 198.462 33.6402 199.392 34.15C200.283 34.629 201.082 35.2629 201.75 36.022C202.39 36.7523 202.865 37.6118 203.142 38.542C203.425 39.5378 203.446 40.5899 203.202 41.596C203.041 42.3938 202.725 43.1521 202.272 43.828C201.859 44.4061 201.366 44.9231 200.808 45.364C200.261 45.7892 199.677 46.1646 199.062 46.486L197.334 47.404C196.814 47.6755 196.32 47.9949 195.858 48.358C195.441 48.6782 195.121 49.1083 194.934 49.6C194.843 49.8247 194.691 50.0199 194.496 50.164C194.404 50.2357 194.297 50.2854 194.182 50.3094C194.068 50.3333 193.95 50.3308 193.836 50.302L191.292 49.738C191.17 49.7124 191.054 49.6625 190.951 49.5914C190.848 49.5204 190.76 49.4295 190.692 49.324C190.621 49.2261 190.573 49.1125 190.553 48.9927C190.533 48.8728 190.542 48.7499 190.578 48.634C190.783 47.8462 191.144 47.1075 191.64 46.462C192.093 45.8911 192.617 45.3809 193.2 44.944C193.768 44.5282 194.371 44.1609 195 43.846C195.6 43.54 196.2 43.246 196.722 42.952C197.208 42.691 197.664 42.3793 198.084 42.022C198.453 41.7136 198.708 41.2915 198.81 40.822C198.906 40.4144 198.901 39.9897 198.797 39.5843C198.692 39.1789 198.491 38.8048 198.21 38.494C197.509 37.728 196.571 37.219 195.546 37.048C193.65 36.628 192.05 37.266 190.746 38.962C190.62 39.1472 190.462 39.3078 190.278 39.436C190.071 39.5387 189.832 39.5559 189.612 39.484L186.906 38.884C186.713 38.8468 186.543 38.7346 186.432 38.572C186.373 38.4852 186.334 38.3867 186.316 38.2831C186.298 38.1796 186.303 38.0735 186.33 37.972C186.56 37.1383 186.988 36.3726 187.578 35.74C188.244 35.0065 189.034 34.397 189.912 33.94C190.873 33.4375 191.908 33.0931 192.978 32.92C194.125 32.7336 195.297 32.7723 196.428 33.034ZM193.554 52.342C193.792 52.3979 193.999 52.5447 194.13 52.751C194.261 52.9573 194.307 53.2068 194.256 53.4461L193.608 56.386C193.586 56.5091 193.539 56.6262 193.468 56.7296C193.398 56.833 193.307 56.9204 193.2 56.986C193.1 57.0553 192.986 57.1028 192.866 57.1255C192.746 57.1483 192.623 57.1457 192.504 57.118L189.6 56.452C189.477 56.4312 189.359 56.384 189.256 56.3136C189.152 56.2432 189.065 56.1512 189 56.044C188.933 55.9427 188.887 55.8287 188.866 55.709C188.844 55.5894 188.847 55.4665 188.874 55.348L189.528 52.408C189.584 52.1697 189.731 51.9625 189.937 51.8304C190.143 51.6982 190.392 51.6515 190.632 51.7L193.554 52.342Z" fill="#407BFF"/>
<path d="M199.633 61.1801C200.355 61.0642 201.09 61.0501 201.817 61.1381C202.51 61.2206 203.185 61.4236 203.809 61.7381C204.403 62.0464 204.926 62.4756 205.345 62.9981C205.721 63.5095 205.986 64.0941 206.122 64.7141C206.259 65.3342 206.263 65.976 206.137 66.5981C206.022 67.0764 205.838 67.5353 205.591 67.9601C205.352 68.3733 205.075 68.763 204.763 69.1241C204.457 69.4841 204.163 69.8261 203.893 70.1561C203.628 70.4635 203.393 70.795 203.191 71.1461C203 71.4539 202.904 71.8105 202.915 72.1721C202.909 72.3411 202.862 72.5061 202.777 72.6521C202.733 72.7194 202.676 72.7766 202.609 72.8201C202.541 72.8635 202.466 72.8922 202.387 72.9041L200.587 73.1921C200.502 73.2074 200.416 73.2057 200.333 73.1871C200.249 73.1686 200.17 73.1336 200.101 73.0841C200.03 73.0395 199.97 72.9788 199.928 72.9068C199.885 72.8348 199.86 72.7537 199.855 72.6701C199.779 72.1118 199.82 71.5439 199.975 71.0021C200.116 70.5225 200.317 70.0628 200.575 69.6341C200.827 69.2227 201.116 68.8351 201.439 68.4761C201.757 68.1161 202.039 67.7801 202.315 67.4561C202.561 67.1667 202.774 66.8508 202.951 66.5141C203.107 66.2243 203.164 65.8913 203.113 65.5661C203.067 65.2799 202.954 65.0087 202.781 64.7758C202.609 64.5429 202.383 64.355 202.123 64.2281C201.478 63.9165 200.747 63.8279 200.047 63.9761C199.412 64.0689 198.822 64.3557 198.357 64.7972C197.891 65.2387 197.574 65.8132 197.449 66.4421C197.413 66.5934 197.353 66.7375 197.269 66.8681C197.162 66.982 197.016 67.0525 196.861 67.0661L194.965 67.3721C194.831 67.3976 194.693 67.3696 194.581 67.2941C194.523 67.2544 194.474 67.2028 194.438 67.1428C194.402 67.0828 194.379 67.0157 194.371 66.9461C194.314 66.3507 194.407 65.7506 194.641 65.2001C194.878 64.5595 195.227 63.9662 195.673 63.4481C196.161 62.8808 196.736 62.3947 197.377 62.0081C198.068 61.5888 198.834 61.3076 199.633 61.1801ZM202.729 74.2901C202.811 74.277 202.896 74.2803 202.977 74.2999C203.058 74.3194 203.135 74.3549 203.203 74.4041C203.273 74.4506 203.333 74.5115 203.379 74.5829C203.424 74.6542 203.454 74.7344 203.467 74.8181L203.803 76.8761C203.829 77.043 203.788 77.2135 203.689 77.3505C203.59 77.4876 203.441 77.5801 203.275 77.6081L201.265 77.9381C201.098 77.9639 200.927 77.9229 200.791 77.8241C200.721 77.777 200.662 77.7158 200.618 77.6445C200.573 77.5732 200.544 77.4933 200.533 77.4101L200.197 75.3521C200.181 75.2695 200.184 75.1846 200.203 75.103C200.223 75.0213 200.259 74.9447 200.311 74.8781C200.358 74.8085 200.419 74.7496 200.49 74.7051C200.561 74.6607 200.641 74.6317 200.725 74.6201L202.729 74.2901Z" fill="#407BFF"/>
<g opacity="0.2">
<path d="M199.633 61.1801C200.355 61.0642 201.09 61.0501 201.817 61.1381C202.51 61.2206 203.185 61.4236 203.809 61.7381C204.403 62.0464 204.926 62.4756 205.345 62.9981C205.721 63.5095 205.986 64.0941 206.122 64.7141C206.259 65.3342 206.263 65.976 206.137 66.5981C206.022 67.0764 205.838 67.5353 205.591 67.9601C205.352 68.3733 205.075 68.763 204.763 69.1241C204.457 69.4841 204.163 69.8261 203.893 70.1561C203.628 70.4635 203.393 70.795 203.191 71.1461C203 71.4539 202.904 71.8105 202.915 72.1721C202.909 72.3411 202.862 72.5061 202.777 72.6521C202.733 72.7194 202.676 72.7766 202.609 72.8201C202.541 72.8635 202.466 72.8922 202.387 72.9041L200.587 73.1921C200.502 73.2074 200.416 73.2057 200.333 73.1871C200.249 73.1686 200.17 73.1336 200.101 73.0841C200.03 73.0395 199.97 72.9788 199.928 72.9068C199.885 72.8348 199.86 72.7537 199.855 72.6701C199.779 72.1118 199.82 71.5439 199.975 71.0021C200.116 70.5225 200.317 70.0628 200.575 69.6341C200.827 69.2227 201.116 68.8351 201.439 68.4761C201.757 68.1161 202.039 67.7801 202.315 67.4561C202.561 67.1667 202.774 66.8508 202.951 66.5141C203.107 66.2243 203.164 65.8913 203.113 65.5661C203.067 65.2799 202.954 65.0087 202.781 64.7758C202.609 64.5429 202.383 64.355 202.123 64.2281C201.478 63.9165 200.747 63.8279 200.047 63.9761C199.412 64.0689 198.822 64.3557 198.357 64.7972C197.891 65.2387 197.574 65.8132 197.449 66.4421C197.413 66.5934 197.353 66.7375 197.269 66.8681C197.162 66.982 197.016 67.0525 196.861 67.0661L194.965 67.3721C194.831 67.3976 194.693 67.3696 194.581 67.2941C194.523 67.2544 194.474 67.2028 194.438 67.1428C194.402 67.0828 194.379 67.0157 194.371 66.9461C194.314 66.3507 194.407 65.7506 194.641 65.2001C194.878 64.5595 195.227 63.9662 195.673 63.4481C196.161 62.8808 196.736 62.3947 197.377 62.0081C198.068 61.5888 198.834 61.3076 199.633 61.1801ZM202.729 74.2901C202.811 74.277 202.896 74.2803 202.977 74.2999C203.058 74.3194 203.135 74.3549 203.203 74.4041C203.273 74.4506 203.333 74.5115 203.379 74.5829C203.424 74.6542 203.454 74.7344 203.467 74.8181L203.803 76.8761C203.829 77.043 203.788 77.2135 203.689 77.3505C203.59 77.4876 203.441 77.5801 203.275 77.6081L201.265 77.9381C201.098 77.9639 200.927 77.9229 200.791 77.8241C200.721 77.777 200.662 77.7158 200.618 77.6445C200.573 77.5732 200.544 77.4933 200.533 77.4101L200.197 75.3521C200.181 75.2695 200.184 75.1846 200.203 75.103C200.223 75.0213 200.259 74.9447 200.311 74.8781C200.358 74.8085 200.419 74.7496 200.49 74.7051C200.561 74.6607 200.641 74.6317 200.725 74.6201L202.729 74.2901Z" fill="black"/>
</g>
<path d="M216.6 64.4141C216.682 64.471 216.751 64.5439 216.804 64.6285C216.856 64.7131 216.891 64.8076 216.906 64.9061C216.925 65.0037 216.924 65.1042 216.902 65.2013C216.88 65.2983 216.839 65.3899 216.78 65.4701L215.352 67.4801C215.295 67.5619 215.222 67.6312 215.138 67.6838C215.053 67.7365 214.959 67.7712 214.86 67.7861C214.762 67.8052 214.662 67.8038 214.565 67.7822C214.468 67.7605 214.376 67.7189 214.296 67.6601L212.328 66.2621C212.246 66.206 212.177 66.1331 212.125 66.0483C212.074 65.9635 212.04 65.8686 212.028 65.7701C212.009 65.6725 212.01 65.572 212.032 65.4749C212.054 65.3778 212.095 65.2863 212.154 65.2061L213.6 63.1961C213.717 63.0332 213.893 62.9229 214.091 62.8892C214.289 62.8555 214.492 62.9011 214.656 63.0161L216.6 64.4141ZM224.904 50.8001C225.622 51.303 226.261 51.9096 226.8 52.6001C227.326 53.2424 227.733 53.974 228 54.7601C228.249 55.5134 228.333 56.3115 228.246 57.1001C228.144 57.941 227.826 58.7412 227.322 59.4221C226.948 59.9726 226.466 60.442 225.906 60.8021C225.413 61.1111 224.877 61.3456 224.316 61.4981C223.769 61.641 223.211 61.7374 222.648 61.7861L221.052 61.9301C220.573 61.9683 220.099 62.0507 219.636 62.1761C219.209 62.2731 218.817 62.4895 218.508 62.8001C218.368 62.942 218.192 63.0418 217.998 63.0881C217.906 63.1145 217.809 63.1185 217.715 63.0997C217.621 63.0809 217.533 63.0399 217.458 62.9801L215.718 61.7441C215.552 61.6253 215.438 61.4469 215.4 61.2461C215.378 61.1488 215.378 61.0475 215.402 60.9506C215.426 60.8537 215.473 60.7637 215.538 60.6881C215.945 60.1607 216.452 59.72 217.032 59.3921C217.554 59.1071 218.111 58.8913 218.688 58.7501C219.245 58.6148 219.814 58.5285 220.386 58.4921C220.95 58.4561 221.478 58.4141 221.97 58.3661C222.42 58.3263 222.865 58.2378 223.296 58.1021C223.673 57.9765 223.998 57.7297 224.22 57.4001C224.421 57.1218 224.551 56.7992 224.6 56.4596C224.649 56.1201 224.616 55.7738 224.502 55.4501C224.218 54.6504 223.676 53.9683 222.96 53.5121C221.664 52.5881 220.25 52.5581 218.718 53.4221C218.564 53.5202 218.393 53.5894 218.214 53.6261C218.121 53.6326 218.027 53.6205 217.939 53.5907C217.85 53.5608 217.768 53.5137 217.698 53.4521L215.85 52.1381C215.783 52.0937 215.726 52.0362 215.681 51.9693C215.637 51.9023 215.607 51.827 215.592 51.7481C215.578 51.6664 215.58 51.5827 215.6 51.5021C215.62 51.4216 215.656 51.346 215.706 51.2801C216.142 50.7214 216.709 50.2784 217.356 49.9901C218.091 49.6569 218.879 49.4539 219.684 49.3901C220.57 49.3161 221.461 49.387 222.324 49.6001C223.255 49.8245 224.132 50.2324 224.904 50.8001Z" fill="#407BFF"/>
<g opacity="0.6">
<path d="M216.6 64.4141C216.682 64.471 216.751 64.5439 216.804 64.6285C216.856 64.7131 216.891 64.8076 216.906 64.9061C216.925 65.0037 216.924 65.1042 216.902 65.2013C216.88 65.2983 216.839 65.3899 216.78 65.4701L215.352 67.4801C215.295 67.5619 215.222 67.6312 215.138 67.6838C215.053 67.7365 214.959 67.7712 214.86 67.7861C214.762 67.8052 214.662 67.8038 214.565 67.7822C214.468 67.7605 214.376 67.7189 214.296 67.6601L212.328 66.2621C212.246 66.206 212.177 66.1331 212.125 66.0483C212.074 65.9635 212.04 65.8686 212.028 65.7701C212.009 65.6725 212.01 65.572 212.032 65.4749C212.054 65.3778 212.095 65.2863 212.154 65.2061L213.6 63.1961C213.717 63.0332 213.893 62.9229 214.091 62.8892C214.289 62.8555 214.492 62.9011 214.656 63.0161L216.6 64.4141ZM224.904 50.8001C225.622 51.303 226.261 51.9096 226.8 52.6001C227.326 53.2424 227.733 53.974 228 54.7601C228.249 55.5134 228.333 56.3115 228.246 57.1001C228.144 57.941 227.826 58.7412 227.322 59.4221C226.948 59.9726 226.466 60.442 225.906 60.8021C225.413 61.1111 224.877 61.3456 224.316 61.4981C223.769 61.641 223.211 61.7374 222.648 61.7861L221.052 61.9301C220.573 61.9683 220.099 62.0507 219.636 62.1761C219.209 62.2731 218.817 62.4895 218.508 62.8001C218.368 62.942 218.192 63.0418 217.998 63.0881C217.906 63.1145 217.809 63.1185 217.715 63.0997C217.621 63.0809 217.533 63.0399 217.458 62.9801L215.718 61.7441C215.552 61.6253 215.438 61.4469 215.4 61.2461C215.378 61.1488 215.378 61.0475 215.402 60.9506C215.426 60.8537 215.473 60.7637 215.538 60.6881C215.945 60.1607 216.452 59.72 217.032 59.3921C217.554 59.1071 218.111 58.8913 218.688 58.7501C219.245 58.6148 219.814 58.5285 220.386 58.4921C220.95 58.4561 221.478 58.4141 221.97 58.3661C222.42 58.3263 222.865 58.2378 223.296 58.1021C223.673 57.9765 223.998 57.7297 224.22 57.4001C224.421 57.1218 224.551 56.7992 224.6 56.4596C224.649 56.1201 224.616 55.7738 224.502 55.4501C224.218 54.6504 223.676 53.9683 222.96 53.5121C221.664 52.5881 220.25 52.5581 218.718 53.4221C218.564 53.5202 218.393 53.5894 218.214 53.6261C218.121 53.6326 218.027 53.6205 217.939 53.5907C217.85 53.5608 217.768 53.5137 217.698 53.4521L215.85 52.1381C215.783 52.0937 215.726 52.0362 215.681 51.9693C215.637 51.9023 215.607 51.827 215.592 51.7481C215.578 51.6664 215.58 51.5827 215.6 51.5021C215.62 51.4216 215.656 51.346 215.706 51.2801C216.142 50.7214 216.709 50.2784 217.356 49.9901C218.091 49.6569 218.879 49.4539 219.684 49.3901C220.57 49.3161 221.461 49.387 222.324 49.6001C223.255 49.8245 224.132 50.2324 224.904 50.8001Z" fill="white"/>
</g>
<path d="M171.918 117.526H150.6V65.8781C150.6 61.3922 152.382 57.0901 155.554 53.9181C158.726 50.7461 163.028 48.9641 167.514 48.9641H169.482C173.967 48.9641 178.27 50.7461 181.442 53.9181C184.614 57.0901 186.396 61.3922 186.396 65.8781V103.078C186.388 106.913 184.859 110.588 182.145 113.296C179.43 116.005 175.752 117.526 171.918 117.526Z" fill="#263238"/>
<path d="M148.523 241.864C148.146 244.004 147.946 246.171 147.923 248.344C147.845 252.28 147.125 253.678 147.029 256.906C146.915 260.596 147.557 261.976 149.051 264.052C150.545 266.128 154.451 268.006 156.143 264.502C157.835 260.998 157.589 258.7 157.055 255.082C156.509 251.338 156.455 249.268 156.119 246.418C155.843 243.904 155.519 241.99 155.519 241.99L148.523 241.864Z" fill="#263238"/>
<path d="M159.695 215.722L146.735 215.488C146.927 224.14 148.301 233.746 148.535 241.888C148.583 243.418 148.499 253.762 149.075 256.888C149.945 261.616 155.549 260.974 155.849 258.148C156.149 255.322 155.489 243.244 155.507 241.996C155.453 236.788 157.907 227.998 159.173 218.65C159.227 218.2 159.635 216.172 159.695 215.722Z" fill="#FFA8A7"/>
<path d="M176.346 235.132C176.346 235.132 175.836 234.856 175.746 235.402C175.62 236.05 175.428 237.388 175.146 238.456C174.774 239.938 174.462 242.38 174.684 243.592C174.906 244.804 177.726 246.352 179.556 246.916C181.811 247.612 183.868 248.836 185.556 250.486C187.356 252.19 191.274 253.798 193.956 253.78C197.106 253.78 199.302 252.73 200.34 251.044C201.378 249.358 199.392 249.154 195.792 246.844L193.002 245.044C187.296 241.318 185.202 239.326 183.6 235.6L176.346 235.132Z" fill="#263238"/>
<path d="M183.648 232.822C183.552 230.146 185.4 207.4 185.4 207.4L173.094 213.01C175.728 228.742 176.292 232.456 176.334 235.03C176.28 235.246 176.258 235.468 176.268 235.69C176.268 238.744 179.73 240.394 182.418 242.434C184.703 244.224 187.138 245.814 189.696 247.186C191.652 248.164 195.624 248.254 196.116 247C192.84 244.498 188.076 240.754 185.472 237.898C184.2 236.554 183.744 235.504 183.648 232.822Z" fill="#FFA8A7"/>
<path d="M152.046 131.296C147.318 141.67 147.318 149.698 148.104 162.94C148.8 175.09 149.958 185.8 149.958 185.8C149.778 187.954 146.784 192.16 146.394 201.688C146.034 210.592 146.994 221.914 146.994 221.914C146.994 221.914 153.72 225.64 158.694 221.878C158.694 221.878 163.494 198.964 164.898 187.816C166.098 178.09 168.258 165.664 168.258 165.664L172.8 187.75C171.82 190.884 171.109 194.095 170.676 197.35C170.04 203.908 173.712 216.784 173.712 216.784C173.712 216.784 180.66 218.854 184.902 215.092C184.902 215.092 186.486 194.158 187.08 186.262C187.872 175.684 186.204 147.052 184.902 131.89L152.046 131.296Z" fill="#455A64"/>
<path d="M168.27 165.646L170.136 149.002C170.136 149.002 178.5 147.886 182.292 144.322C181.206 146.02 179.76 147.458 178.057 148.535C176.353 149.611 174.433 150.299 172.434 150.55L169.734 166.036L172.8 187.75L168.27 165.646Z" fill="#263238"/>
<path d="M202.14 127.204C202.486 124.167 202.638 121.111 202.596 118.054C202.41 115.414 201.936 114.982 198.246 110.308C193.266 103.99 189.012 98.308 184.512 92.662C181.296 88.63 177.912 88.012 174.624 88.192C172.32 88.318 176.82 99.4 179.082 105.958L192 119.866C192.4 120.415 192.584 121.092 192.516 121.768L191.736 133.6L195.606 138.784C195.606 138.784 201.468 133.732 202.14 127.204Z" fill="#FFA8A7"/>
<path d="M162.168 88.552C159.666 88.726 155.118 89.152 155.118 89.152C152.496 90.616 151.83 91.822 151.344 95.302C151.134 96.79 152.346 100.744 153.384 106.366L155.352 116.788L155.136 121.96C154.116 125.116 151.806 129.034 149.766 134.812C159.786 140.404 168.186 140.614 175.806 139.612C181.614 138.862 184.692 137.458 185.718 136.066C185.502 130.36 185.118 126.832 184.998 120.868C184.956 118.366 185.106 115.834 185.208 112.954C189.102 109.75 189.15 104.422 187.008 100.954C182.07 92.956 177.264 87.922 174.084 88.18L162.168 88.552Z" fill="#407BFF"/>
<path opacity="0.6" d="M162.168 88.552C159.666 88.726 155.118 89.152 155.118 89.152C152.496 90.616 151.83 91.822 151.344 95.302C151.134 96.79 152.346 100.744 153.384 106.366L155.352 116.788L155.136 121.96C154.116 125.116 151.806 129.034 149.766 134.812C159.786 140.404 168.186 140.614 175.806 139.612C181.614 138.862 184.692 137.458 185.718 136.066C185.502 130.36 185.118 126.832 184.998 120.868C184.956 118.366 185.106 115.834 185.208 112.954C189.102 109.75 189.15 104.422 187.008 100.954C182.07 92.956 177.264 87.922 174.084 88.18L162.168 88.552Z" fill="white"/>
<path opacity="0.1" d="M177.45 113.032C177.45 113.032 172.878 116.584 167.652 114.73C166.185 114.268 164.861 113.434 163.81 112.311C162.759 111.187 162.016 109.811 161.652 108.316C161.652 108.316 161.1 114.286 167.682 116.32C174.06 118.282 177.45 113.032 177.45 113.032Z" fill="black"/>
<path d="M183.654 72.166C183.456 80.83 180.654 82.966 179.238 83.566C177.822 84.166 175.11 83.806 172.47 83.368V88.6C172.47 88.6 175.518 91.792 175.29 94.174C175.062 96.556 170.49 96.826 167.082 94.492C165.202 93.2003 163.501 91.6649 162.024 89.926C161.741 89.5905 161.585 89.1653 161.586 88.726V76.486C161.586 76.486 160.14 78.016 157.584 76.264C157.033 75.912 156.56 75.4492 156.198 74.9048C155.835 74.3605 155.589 73.7466 155.476 73.1021C155.363 72.4577 155.386 71.7968 155.542 71.1615C155.698 70.5263 155.985 69.9304 156.384 69.412C157.5 68.098 160.332 68.008 161.688 70.012C162.456 71.506 162.558 73.012 163.416 72.412C165.696 70.768 164.472 67.012 167.226 65.212C168.13 64.7403 169.069 64.3391 170.034 64.012C174.948 62.314 179.208 60.886 180.234 57.526C182.166 58.63 183.894 61.948 183.654 72.166Z" fill="#FFA8A7"/>
<path d="M173.964 79.9061C174.594 79.9061 175.104 79.3957 175.104 78.7661C175.104 78.1365 174.594 77.6261 173.964 77.6261C173.335 77.6261 172.824 78.1365 172.824 78.7661C172.824 79.3957 173.335 79.9061 173.964 79.9061Z" fill="#B16668"/>
<path d="M173.208 70.852C173.207 71.0867 173.138 71.3162 173.009 71.512C172.879 71.7079 172.695 71.8615 172.48 71.9538C172.264 72.0461 172.026 72.0731 171.795 72.0315C171.564 71.9898 171.35 71.8814 171.18 71.7195C171.01 71.5576 170.891 71.3494 170.838 71.1207C170.786 70.8921 170.801 70.6529 170.883 70.4328C170.964 70.2128 171.109 70.0216 171.298 69.8828C171.487 69.744 171.713 69.6637 171.948 69.652C172.11 69.6439 172.273 69.6689 172.425 69.7255C172.578 69.7822 172.717 69.8693 172.835 69.9815C172.953 70.0938 173.047 70.2289 173.111 70.3785C173.175 70.5281 173.208 70.6892 173.208 70.852Z" fill="#263238"/>
<path d="M182.298 70.9721C182.31 71.1189 182.293 71.2666 182.248 71.4068C182.203 71.5469 182.13 71.6766 182.034 71.7883C181.938 71.9 181.82 71.9915 181.689 72.0573C181.557 72.1232 181.413 72.1622 181.266 72.1721C181.118 72.1858 180.968 72.1678 180.828 72.1192C180.687 72.0707 180.558 71.9928 180.45 71.8907C180.341 71.7885 180.256 71.6645 180.199 71.5268C180.142 71.3891 180.115 71.2409 180.12 71.0921C180.105 70.9442 180.12 70.7947 180.164 70.6528C180.208 70.5108 180.281 70.3795 180.378 70.2667C180.475 70.1539 180.594 70.0621 180.727 69.9969C180.861 69.9317 181.007 69.8945 181.155 69.8875C181.304 69.8806 181.452 69.904 181.591 69.9565C181.73 70.0089 181.857 70.0892 181.964 70.1924C182.071 70.2956 182.156 70.4196 182.214 70.5568C182.271 70.6939 182.3 70.8414 182.298 70.9901V70.9721Z" fill="#263238"/>
<path d="M171.666 73.936C170.631 73.936 169.638 73.5253 168.906 72.7941C168.174 72.0629 167.761 71.0709 167.76 70.036C167.76 67.384 170.496 67.384 171.666 67.384C172.836 67.384 175.566 67.384 175.566 70.036C175.564 71.0699 175.153 72.061 174.422 72.792C173.691 73.523 172.7 73.9344 171.666 73.936ZM171.666 67.996C169.266 67.996 168.378 68.596 168.378 70.036C168.378 70.9112 168.725 71.7506 169.344 72.3695C169.963 72.9884 170.803 73.336 171.678 73.336C172.553 73.336 173.392 72.9884 174.011 72.3695C174.63 71.7506 174.978 70.9112 174.978 70.036C174.954 68.566 174.03 67.996 171.666 67.996Z" fill="#455A64"/>
<path d="M181.572 73.936C180.537 73.936 179.545 73.5253 178.812 72.7941C178.08 72.0629 177.668 71.0709 177.666 70.036C177.666 67.384 180.402 67.384 181.572 67.384C182.742 67.384 185.472 67.384 185.472 70.036C185.47 71.0699 185.059 72.061 184.328 72.792C183.597 73.523 182.606 73.9344 181.572 73.936ZM181.572 67.996C179.208 67.996 178.284 68.596 178.284 70.036C178.284 70.9112 178.632 71.7506 179.251 72.3695C179.869 72.9884 180.709 73.336 181.584 73.336C182.459 73.336 183.299 72.9884 183.917 72.3695C184.536 71.7506 184.884 70.9112 184.884 70.036C184.86 68.566 183.936 67.996 181.572 67.996Z" fill="#455A64"/>
<path d="M176.172 68.776L176.364 76.066L180.198 74.878L176.172 68.776Z" fill="#F28F8F"/>
<path d="M172.464 83.386C169.68 83.02 163.95 81.376 163.056 79.108C163.415 80.2542 164.117 81.2632 165.066 82C166.776 83.47 172.464 85.12 172.464 85.12V83.386Z" fill="#F28F8F"/>
<path d="M172.602 65.2361L170.058 66.7901C169.857 66.4408 169.799 66.0278 169.895 65.6367C169.991 65.2456 170.234 64.9066 170.574 64.6901C170.741 64.5882 170.928 64.5215 171.122 64.4938C171.317 64.4662 171.515 64.4783 171.704 64.5293C171.894 64.5803 172.071 64.6693 172.225 64.7908C172.38 64.9122 172.508 65.0637 172.602 65.2361Z" fill="#263238"/>
<path d="M182.952 66.9641L180.12 65.9741C180.175 65.7864 180.268 65.6119 180.392 65.4614C180.517 65.3108 180.671 65.1873 180.845 65.0985C181.02 65.0097 181.21 64.9575 181.405 64.945C181.6 64.9326 181.796 64.9602 181.98 65.0261C182.36 65.1626 182.673 65.44 182.854 65.8007C183.035 66.1615 183.07 66.5781 182.952 66.9641Z" fill="#263238"/>
<path d="M175.26 70.3481C175.219 70.3481 175.179 70.34 175.142 70.3243C175.104 70.3085 175.07 70.2854 175.042 70.2564C175.013 70.2273 174.991 70.1929 174.976 70.1551C174.961 70.1172 174.953 70.0768 174.954 70.0361C174.954 69.5381 175.938 69.2141 176.826 69.2141C177.714 69.2141 178.284 69.5381 178.284 70.0361C178.266 70.1013 178.226 70.1587 178.172 70.1995C178.118 70.2403 178.052 70.2624 177.984 70.2624C177.916 70.2624 177.85 70.2403 177.796 70.1995C177.742 70.1587 177.703 70.1013 177.684 70.0361C177.684 69.9761 177.378 69.8261 176.844 69.8261C176.414 69.817 175.987 69.8903 175.584 70.0421C175.584 70.0839 175.576 70.1252 175.559 70.1635C175.543 70.2019 175.519 70.2364 175.488 70.2651C175.458 70.2938 175.422 70.3159 175.383 70.3302C175.344 70.3445 175.302 70.3506 175.26 70.3481Z" fill="#455A64"/>
<path d="M168.078 70.0841H168.042L161.184 69.4841C160.863 69.1665 160.481 68.9174 160.062 68.7521L168.114 69.4961C168.194 69.5066 168.268 69.5482 168.318 69.6121C168.369 69.676 168.392 69.7571 168.384 69.8381C168.369 69.9085 168.331 69.9717 168.275 70.0166C168.219 70.0616 168.149 70.0855 168.078 70.0841Z" fill="#455A64"/>
<path d="M139.92 77.236C142.164 74.236 143.694 71.974 145.74 69.436C146.904 67.978 147.648 66.934 148.74 65.4401C149.508 64.4081 149.94 63.538 150.816 63.22C151.762 62.8322 152.615 62.2473 153.318 61.504C153.75 61.0262 154.151 60.5212 154.518 59.992C155.804 58.2611 157.331 56.7234 159.054 55.426C160.854 54.07 162.864 53.026 164.718 51.736C165.822 50.962 167.004 49.678 165.66 48.478C165.248 48.1309 164.754 47.8935 164.226 47.788C160.956 47.0801 158.112 48.202 154.914 49.018C153.525 49.3648 152.166 49.8243 150.852 50.3921C150.205 50.6477 149.599 50.9953 149.052 51.4241C148.287 52.1955 147.66 53.0925 147.198 54.076C145.8 56.572 142.8 58.804 140.7 60.778C138.246 63.088 136.05 65.206 133.248 67.75C130.728 70.048 128.262 72.16 125.952 74.668C124.038 76.738 124.752 78.358 125.004 78.9221C126.564 82.126 128.31 83.278 130.404 85.264C134.004 88.702 146.454 98.596 150.576 101.866C151.461 102.562 152.157 103.47 152.598 104.506L153.39 106.336C158.094 107.2 161.232 100.138 157.338 91.636C156.693 90.2612 155.708 89.0737 154.476 88.186C149.556 84.604 139.92 77.236 139.92 77.236Z" fill="#FFA8A7"/>
<path d="M139.92 77.2361C138.423 79.078 136.427 80.4505 134.172 81.1901C134.172 81.1901 137.172 81.9581 141.282 78.2681L139.92 77.2361Z" fill="#F28F8F"/>
<path d="M200.916 120.946L200.148 120.286C200.033 120.21 199.902 120.163 199.765 120.147C199.629 120.132 199.49 120.148 199.362 120.196L191.028 122.464C190.608 122.604 190.223 122.833 189.9 123.135C189.577 123.438 189.323 123.806 189.156 124.216L183.156 141.514C183.083 141.655 183.055 141.814 183.074 141.972C183.093 142.129 183.159 142.277 183.264 142.396L184.056 143.08C184.171 143.16 184.304 143.21 184.443 143.227C184.582 143.243 184.723 143.226 184.854 143.176L193.2 140.908C193.619 140.768 194.004 140.539 194.327 140.237C194.65 139.934 194.904 139.566 195.072 139.156C196.272 135.754 199.872 125.26 201.072 121.858C201.216 121.432 201.144 121.108 200.916 120.946Z" fill="#455A64"/>
<path d="M183.942 142.18L189.942 124.882C190.109 124.473 190.363 124.104 190.686 123.803C191.009 123.501 191.394 123.274 191.814 123.136L200.142 120.868C200.916 120.658 201.342 121.102 201.066 121.858C199.866 125.26 196.266 135.754 195.066 139.156C194.899 139.566 194.645 139.934 194.321 140.237C193.998 140.539 193.614 140.768 193.194 140.908L184.866 143.2C184.098 143.38 183.684 142.936 183.942 142.18Z" fill="#407BFF"/>
<path d="M190.908 123.616C190.474 123.944 190.138 124.384 189.936 124.888L183.936 142.18C183.867 142.317 183.838 142.471 183.853 142.624C183.868 142.777 183.926 142.923 184.02 143.044L183.276 142.408C183.169 142.29 183.101 142.143 183.081 141.985C183.06 141.827 183.089 141.667 183.162 141.526L189.162 124.228C189.351 123.758 189.659 123.344 190.056 123.028L190.908 123.616Z" fill="#37474F"/>
<path d="M198.63 128.83C198.03 130.588 195.948 131.764 192.504 132.58C189.06 133.396 187.158 137.05 187.704 138.16C188.25 139.27 193.818 140.308 196.044 139.99C198.27 139.672 200.502 136.456 201.18 135.46C201.858 134.464 202.638 127.516 201.924 126.562C201.21 125.608 199.704 125.758 199.704 125.758L198.63 128.83Z" fill="#F28F8F"/>
</svg>
