<svg width="65" height="64" viewBox="0 0 65 64" fill="none" xmlns="http://www.w3.org/2000/svg">
<g filter="url(#filter0_d_6564_624)">
<rect x="2.5" y="1" width="60" height="60" rx="30" fill="#6AA5D7"/>
<path d="M49.1407 28.8719L42.0938 35.0219L44.2047 44.1782C44.3164 44.6568 44.2845 45.1578 44.1131 45.6185C43.9416 46.0791 43.6382 46.479 43.2407 46.7681C42.8432 47.0572 42.3693 47.2227 41.8782 47.244C41.3871 47.2652 40.9007 47.1413 40.4797 46.8876L32.4938 42.0438L24.525 46.8876C24.104 47.1413 23.6176 47.2652 23.1266 47.244C22.6355 47.2227 22.1616 47.0572 21.7641 46.7681C21.3666 46.479 21.0631 46.0791 20.8917 45.6185C20.7202 45.1578 20.6883 44.6568 20.8 44.1782L22.9078 35.0313L15.8594 28.8719C15.4866 28.5504 15.217 28.126 15.0845 27.6518C14.952 27.1777 14.9623 26.675 15.1144 26.2068C15.2664 25.7385 15.5533 25.3256 15.939 25.0198C16.3248 24.7139 16.7923 24.5288 17.2828 24.4876L26.5735 23.6829L30.2 15.0329C30.3894 14.579 30.7089 14.1913 31.1181 13.9186C31.5274 13.6459 32.0082 13.5004 32.5 13.5004C32.9918 13.5004 33.4727 13.6459 33.8819 13.9186C34.2912 14.1913 34.6106 14.579 34.8 15.0329L38.4375 23.6829L47.725 24.4876C48.2156 24.5288 48.6831 24.7139 49.0688 25.0198C49.4546 25.3256 49.7415 25.7385 49.8935 26.2068C50.0455 26.675 50.0559 27.1777 49.9234 27.6518C49.7908 28.126 49.5213 28.5504 49.1485 28.8719H49.1407Z" fill="white"/>
</g>
<defs>
<filter id="filter0_d_6564_624" x="0.5" y="0" width="64" height="64" filterUnits="userSpaceOnUse" color-interpolation-filters="sRGB">
<feFlood flood-opacity="0" result="BackgroundImageFix"/>
<feColorMatrix in="SourceAlpha" type="matrix" values="0 0 0 0 0 0 0 0 0 0 0 0 0 0 0 0 0 0 127 0" result="hardAlpha"/>
<feOffset dy="1"/>
<feGaussianBlur stdDeviation="1"/>
<feColorMatrix type="matrix" values="0 0 0 0 0 0 0 0 0 0 0 0 0 0 0 0 0 0 0.3 0"/>
<feBlend mode="normal" in2="BackgroundImageFix" result="effect1_dropShadow_6564_624"/>
<feBlend mode="normal" in="SourceGraphic" in2="effect1_dropShadow_6564_624" result="shape"/>
</filter>
</defs>
</svg>
