<svg width="65" height="64" viewBox="0 0 65 64" fill="none" xmlns="http://www.w3.org/2000/svg">
<g filter="url(#filter0_d_6564_463)">
<rect x="2.5" y="1" width="60" height="60" rx="30" fill="#6AA5D7"/>
<path d="M19.9998 22.875C19.9998 20.3886 20.9875 18.004 22.7457 16.2459C24.5038 14.4877 26.8884 13.5 29.3748 13.5C31.8612 13.5 34.2458 14.4877 36.0039 16.2459C37.7621 18.004 38.7498 20.3886 38.7498 22.875C38.7498 23.2065 38.6181 23.5245 38.3837 23.7589C38.1493 23.9933 37.8313 24.125 37.4998 24.125C37.1683 24.125 36.8503 23.9933 36.6159 23.7589C36.3815 23.5245 36.2498 23.2065 36.2498 22.875C36.2498 21.0516 35.5255 19.303 34.2361 18.0136C32.9468 16.7243 31.1981 16 29.3748 16C27.5514 16 25.8027 16.7243 24.5134 18.0136C23.2241 19.303 22.4998 21.0516 22.4998 22.875C22.4998 23.2065 22.3681 23.5245 22.1337 23.7589C21.8992 23.9933 21.5813 24.125 21.2498 24.125C20.9183 24.125 20.6003 23.9933 20.3659 23.7589C20.1315 23.5245 19.9998 23.2065 19.9998 22.875ZM41.8748 29.75C41.1456 29.7492 40.4279 29.9313 39.7873 30.2797C39.5959 29.6873 39.2802 29.1427 38.8615 28.682C38.4428 28.2214 37.9305 27.8555 37.3591 27.6086C36.7876 27.3618 36.17 27.2397 35.5476 27.2506C34.9252 27.2616 34.3123 27.4052 33.7498 27.6719V22.875C33.7498 21.7147 33.2889 20.6019 32.4684 19.7814C31.6479 18.9609 30.5351 18.5 29.3748 18.5C28.2145 18.5 27.1017 18.9609 26.2812 19.7814C25.4607 20.6019 24.9998 21.7147 24.9998 22.875V35.375L24.4029 34.4172C23.8192 33.4141 22.861 32.684 21.739 32.3875C20.617 32.0909 19.4232 32.2523 18.4201 32.8359C17.417 33.4196 16.6869 34.3779 16.3904 35.4999C16.0939 36.6219 16.2552 37.8157 16.8388 38.8188L21.4201 46.6313C21.4969 46.7834 21.6041 46.9183 21.7349 47.0275C21.8658 47.1367 22.0176 47.218 22.1811 47.2664C22.3445 47.3148 22.5161 47.3292 22.6854 47.3089C22.8546 47.2885 23.0179 47.2337 23.1652 47.1479C23.3125 47.0621 23.4406 46.947 23.5418 46.8099C23.643 46.6727 23.7151 46.5163 23.7536 46.3502C23.7921 46.1842 23.7962 46.012 23.7658 45.8443C23.7353 45.6766 23.6708 45.5169 23.5763 45.375L18.9998 37.5625C18.8713 37.3491 18.7866 37.1122 18.7507 36.8657C18.7148 36.6192 18.7284 36.368 18.7906 36.1268C18.8529 35.8856 18.9626 35.6592 19.1133 35.4609C19.264 35.2626 19.4527 35.0963 19.6685 34.9717C19.8842 34.8471 20.1226 34.7668 20.3697 34.7354C20.6168 34.7039 20.8677 34.7221 21.1077 34.7887C21.3478 34.8554 21.5721 34.9692 21.7676 35.1235C21.9632 35.2778 22.126 35.4695 22.2467 35.6875L22.2685 35.7234L25.1873 40.4109C25.3306 40.6422 25.5454 40.8203 25.7992 40.9184C26.0529 41.0165 26.3317 41.0291 26.5933 40.9543C26.8549 40.8796 27.0849 40.7215 27.2485 40.5042C27.4121 40.2868 27.5003 40.022 27.4998 39.75V22.875C27.4998 22.3777 27.6973 21.9008 28.049 21.5492C28.4006 21.1975 28.8775 21 29.3748 21C29.8721 21 30.349 21.1975 30.7006 21.5492C31.0522 21.9008 31.2498 22.3777 31.2498 22.875V33.5C31.2498 33.8315 31.3815 34.1495 31.6159 34.3839C31.8503 34.6183 32.1683 34.75 32.4998 34.75C32.8313 34.75 33.1493 34.6183 33.3837 34.3839C33.6181 34.1495 33.7498 33.8315 33.7498 33.5V31.625C33.7498 31.1277 33.9473 30.6508 34.299 30.2992C34.6506 29.9475 35.1275 29.75 35.6248 29.75C36.1221 29.75 36.599 29.9475 36.9506 30.2992C37.3022 30.6508 37.4998 31.1277 37.4998 31.625V34.75C37.4998 35.0815 37.6315 35.3995 37.8659 35.6339C38.1003 35.8683 38.4183 36 38.7498 36C39.0813 36 39.3993 35.8683 39.6337 35.6339C39.8681 35.3995 39.9998 35.0815 39.9998 34.75V34.125C39.9998 33.6277 40.1973 33.1508 40.549 32.7992C40.9006 32.4475 41.3775 32.25 41.8748 32.25C42.3721 32.25 42.849 32.4475 43.2006 32.7992C43.5522 33.1508 43.7498 33.6277 43.7498 34.125V39.75C43.7498 43.1266 42.6404 45.4219 42.631 45.4406C42.483 45.7371 42.4587 46.0803 42.5636 46.3947C42.6685 46.7091 42.894 46.969 43.1904 47.1172C43.3638 47.2049 43.5555 47.2504 43.7498 47.25C43.982 47.2502 44.2097 47.1856 44.4073 47.0637C44.6049 46.9417 44.7646 46.7671 44.8685 46.5594C44.9263 46.4453 46.2513 43.7469 46.2513 39.75V34.125C46.2513 33.5503 46.1381 32.9813 45.9182 32.4504C45.6982 31.9195 45.3758 31.4371 44.9694 31.0309C44.563 30.6246 44.0805 30.3024 43.5495 30.0826C43.0185 29.8628 42.4494 29.7498 41.8748 29.75Z" fill="white"/>
</g>
<defs>
<filter id="filter0_d_6564_463" x="0.5" y="0" width="64" height="64" filterUnits="userSpaceOnUse" color-interpolation-filters="sRGB">
<feFlood flood-opacity="0" result="BackgroundImageFix"/>
<feColorMatrix in="SourceAlpha" type="matrix" values="0 0 0 0 0 0 0 0 0 0 0 0 0 0 0 0 0 0 127 0" result="hardAlpha"/>
<feOffset dy="1"/>
<feGaussianBlur stdDeviation="1"/>
<feColorMatrix type="matrix" values="0 0 0 0 0 0 0 0 0 0 0 0 0 0 0 0 0 0 0.3 0"/>
<feBlend mode="normal" in2="BackgroundImageFix" result="effect1_dropShadow_6564_463"/>
<feBlend mode="normal" in="SourceGraphic" in2="effect1_dropShadow_6564_463" result="shape"/>
</filter>
</defs>
</svg>
