<svg width="65" height="64" viewBox="0 0 65 64" fill="none" xmlns="http://www.w3.org/2000/svg">
<g filter="url(#filter0_d_6564_394)">
<rect x="2.5" y="1" width="60" height="60" rx="30" fill="#6AA5D7"/>
<path d="M36.25 29.75H33.75V19.75H35C36.3261 19.75 37.5979 20.2768 38.5355 21.2145C39.4732 22.1521 40 23.4239 40 24.75C40 25.0815 40.1317 25.3995 40.3661 25.6339C40.6005 25.8683 40.9185 26 41.25 26C41.5815 26 41.8995 25.8683 42.1339 25.6339C42.3683 25.3995 42.5 25.0815 42.5 24.75C42.4979 22.7615 41.7071 20.8551 40.301 19.449C38.8949 18.0429 36.9885 17.2521 35 17.25H33.75V14.75C33.75 14.4185 33.6183 14.1005 33.3839 13.8661C33.1495 13.6317 32.8315 13.5 32.5 13.5C32.1685 13.5 31.8505 13.6317 31.6161 13.8661C31.3817 14.1005 31.25 14.4185 31.25 14.75V17.25H30C28.0109 17.25 26.1032 18.0402 24.6967 19.4467C23.2902 20.8532 22.5 22.7609 22.5 24.75C22.5 26.7391 23.2902 28.6468 24.6967 30.0533C26.1032 31.4598 28.0109 32.25 30 32.25H31.25V42.25H28.75C27.4239 42.25 26.1521 41.7232 25.2145 40.7855C24.2768 39.8479 23.75 38.5761 23.75 37.25C23.75 36.9185 23.6183 36.6005 23.3839 36.3661C23.1495 36.1317 22.8315 36 22.5 36C22.1685 36 21.8505 36.1317 21.6161 36.3661C21.3817 36.6005 21.25 36.9185 21.25 37.25C21.2521 39.2385 22.0429 41.1449 23.449 42.551C24.8551 43.9571 26.7615 44.7479 28.75 44.75H31.25V47.25C31.25 47.5815 31.3817 47.8995 31.6161 48.1339C31.8505 48.3683 32.1685 48.5 32.5 48.5C32.8315 48.5 33.1495 48.3683 33.3839 48.1339C33.6183 47.8995 33.75 47.5815 33.75 47.25V44.75H36.25C38.2391 44.75 40.1468 43.9598 41.5533 42.5533C42.9598 41.1468 43.75 39.2391 43.75 37.25C43.75 35.2609 42.9598 33.3532 41.5533 31.9467C40.1468 30.5402 38.2391 29.75 36.25 29.75ZM30 29.75C28.6739 29.75 27.4021 29.2232 26.4645 28.2855C25.5268 27.3479 25 26.0761 25 24.75C25 23.4239 25.5268 22.1521 26.4645 21.2145C27.4021 20.2768 28.6739 19.75 30 19.75H31.25V29.75H30ZM36.25 42.25H33.75V32.25H36.25C37.5761 32.25 38.8479 32.7768 39.7855 33.7145C40.7232 34.6521 41.25 35.9239 41.25 37.25C41.25 38.5761 40.7232 39.8479 39.7855 40.7855C38.8479 41.7232 37.5761 42.25 36.25 42.25Z" fill="white"/>
</g>
<defs>
<filter id="filter0_d_6564_394" x="0.5" y="0" width="64" height="64" filterUnits="userSpaceOnUse" color-interpolation-filters="sRGB">
<feFlood flood-opacity="0" result="BackgroundImageFix"/>
<feColorMatrix in="SourceAlpha" type="matrix" values="0 0 0 0 0 0 0 0 0 0 0 0 0 0 0 0 0 0 127 0" result="hardAlpha"/>
<feOffset dy="1"/>
<feGaussianBlur stdDeviation="1"/>
<feColorMatrix type="matrix" values="0 0 0 0 0 0 0 0 0 0 0 0 0 0 0 0 0 0 0.3 0"/>
<feBlend mode="normal" in2="BackgroundImageFix" result="effect1_dropShadow_6564_394"/>
<feBlend mode="normal" in="SourceGraphic" in2="effect1_dropShadow_6564_394" result="shape"/>
</filter>
</defs>
</svg>
