<svg width="1080" height="1080" viewBox="0 0 1080 1080" fill="none" xmlns="http://www.w3.org/2000/svg">
<rect width="1080" height="1080" rx="80" fill="white"/>
<g filter="url(#filter0_d_4536_4122)">
<path d="M432.143 219L339 668H499.344L530.721 510.443L560.369 668H700.454L794.585 518.826L768.396 668H929.728C929.728 668 987.294 368.913 995.941 331.682C1004.59 294.45 987.541 219 915.152 219C842.762 219 831.15 219 831.15 219L680.936 453.239C680.936 453.239 659.935 317.381 655.982 294.45C652.029 271.519 627.323 219 559.875 219C492.426 219 432.143 219 432.143 219Z" fill="url(#paint0_linear_4536_4122)"/>
<path d="M82 667.754L168.803 219H275.334C298.021 219 347.834 240.674 363.37 310.869L420.5 515.5C429.5 543.5 460.5 668 499 668H330.819L279.28 479.583L238.344 667.754H82Z" fill="url(#paint1_linear_4536_4122)"/>
</g>
<g filter="url(#filter1_d_4536_4122)">
<path d="M316.9 820H299.8L278.9 776.7L271.2 820H254.1L266.5 749.8H283.6L304.5 793.3L312.2 749.8H329.3L316.9 820ZM394.195 764.2L384.395 820H367.295L368.595 812.4C366.395 814.867 363.695 816.867 360.495 818.4C357.362 819.867 353.995 820.6 350.395 820.6C344.795 820.6 340.395 819.033 337.195 815.9C333.995 812.7 332.395 808.267 332.395 802.6C332.395 800.467 332.562 798.533 332.895 796.8L338.695 764.2H355.695L350.395 794.5C350.195 795.567 350.095 796.6 350.095 797.6C350.095 800.4 350.862 802.567 352.395 804.1C353.995 805.567 356.195 806.3 358.995 806.3C362.195 806.3 364.895 805.367 367.095 803.5C369.362 801.567 370.862 798.833 371.595 795.3L377.095 764.2H394.195ZM419.878 820.8C415.478 820.8 411.511 820.1 407.978 818.7C404.511 817.3 401.778 815.367 399.778 812.9C397.778 810.367 396.778 807.467 396.778 804.2C396.778 803.733 396.845 802.9 396.978 801.7H413.478C413.345 803.767 413.945 805.433 415.278 806.7C416.678 807.9 418.645 808.5 421.178 808.5C423.311 808.5 425.078 808.1 426.478 807.3C427.878 806.5 428.578 805.367 428.578 803.9C428.578 802.5 427.811 801.4 426.278 800.6C424.811 799.733 422.345 798.7 418.878 797.5C415.278 796.3 412.245 795.133 409.778 794C407.378 792.8 405.311 791.1 403.578 788.9C401.845 786.7 400.978 783.933 400.978 780.6C400.978 777.333 401.945 774.4 403.878 771.8C405.811 769.133 408.511 767.067 411.978 765.6C415.511 764.133 419.578 763.4 424.178 763.4C428.778 763.4 432.778 764.167 436.178 765.7C439.578 767.167 442.211 769.233 444.078 771.9C445.945 774.567 446.878 777.567 446.878 780.9L446.778 782.4H431.278C431.411 780.4 430.811 778.8 429.478 777.6C428.145 776.4 426.245 775.8 423.778 775.8C421.845 775.8 420.245 776.2 418.978 777C417.778 777.8 417.178 778.9 417.178 780.3C417.178 781.767 417.978 783 419.578 784C421.245 784.933 423.811 786 427.278 787.2C430.878 788.4 433.845 789.6 436.178 790.8C438.578 791.933 440.611 793.567 442.278 795.7C444.011 797.767 444.878 800.367 444.878 803.5C444.878 807.1 443.778 810.2 441.578 812.8C439.445 815.4 436.478 817.4 432.678 818.8C428.945 820.133 424.678 820.8 419.878 820.8ZM454.04 792C455.04 786.267 457.007 781.233 459.94 776.9C462.873 772.567 466.407 769.233 470.54 766.9C474.673 764.567 479.04 763.4 483.64 763.4C487.573 763.4 490.873 764.2 493.54 765.8C496.207 767.4 498.14 769.5 499.34 772.1L500.74 764.2H517.84L507.94 820H490.84L492.34 812.1C490.207 814.7 487.507 816.8 484.24 818.4C480.973 820 477.373 820.8 473.44 820.8C469.507 820.8 466.007 819.9 462.94 818.1C459.94 816.3 457.607 813.767 455.94 810.5C454.273 807.167 453.44 803.267 453.44 798.8C453.44 796.667 453.64 794.4 454.04 792ZM495.84 792.1C496.04 790.9 496.14 789.8 496.14 788.8C496.14 785.533 495.173 782.967 493.24 781.1C491.373 779.233 488.973 778.3 486.04 778.3C482.64 778.3 479.54 779.533 476.74 782C473.94 784.4 472.173 787.733 471.44 792C471.24 793.2 471.14 794.3 471.14 795.3C471.14 798.567 472.073 801.167 473.94 803.1C475.873 804.967 478.273 805.9 481.14 805.9C484.54 805.9 487.64 804.667 490.44 802.2C493.24 799.733 495.04 796.367 495.84 792.1ZM612.211 749.8L599.811 820H582.711L590.211 777.9L567.011 820H553.211L544.811 777.7L537.411 820H520.311L532.711 749.8H552.911L564.111 798.4L592.111 749.8H612.211ZM646.908 763.4C654.108 763.4 659.808 765.367 664.008 769.3C668.274 773.167 670.408 778.467 670.408 785.2C670.408 787.4 670.241 789.367 669.908 791.1C669.641 792.633 669.241 794.267 668.708 796H630.008C629.941 796.4 629.908 797.033 629.908 797.9C629.908 800.833 630.708 803.067 632.308 804.6C633.908 806.133 636.041 806.9 638.708 806.9C642.974 806.9 646.241 805.1 648.508 801.5H666.708C664.308 807.167 660.408 811.8 655.008 815.4C649.608 819 643.541 820.8 636.808 820.8C629.608 820.8 623.841 818.8 619.508 814.8C615.241 810.8 613.108 805.367 613.108 798.5C613.108 796.433 613.308 794.3 613.708 792.1C614.708 786.3 616.774 781.233 619.908 776.9C623.041 772.567 626.941 769.233 631.608 766.9C636.274 764.567 641.374 763.4 646.908 763.4ZM653.108 787.3C653.241 786.367 653.308 785.733 653.308 785.4C653.308 782.733 652.474 780.7 650.808 779.3C649.141 777.833 646.941 777.1 644.208 777.1C641.274 777.1 638.674 778 636.408 779.8C634.208 781.533 632.608 784.033 631.608 787.3H653.108ZM675.329 792C676.329 786.267 678.296 781.233 681.229 776.9C684.162 772.567 687.696 769.233 691.829 766.9C695.962 764.567 700.329 763.4 704.929 763.4C708.862 763.4 712.162 764.2 714.829 765.8C717.496 767.4 719.429 769.5 720.629 772.1L722.029 764.2H739.129L729.229 820H712.129L713.629 812.1C711.496 814.7 708.796 816.8 705.529 818.4C702.262 820 698.662 820.8 694.729 820.8C690.796 820.8 687.296 819.9 684.229 818.1C681.229 816.3 678.896 813.767 677.229 810.5C675.562 807.167 674.729 803.267 674.729 798.8C674.729 796.667 674.929 794.4 675.329 792ZM717.129 792.1C717.329 790.9 717.429 789.8 717.429 788.8C717.429 785.533 716.462 782.967 714.529 781.1C712.662 779.233 710.262 778.3 707.329 778.3C703.929 778.3 700.829 779.533 698.029 782C695.229 784.4 693.462 787.733 692.729 792C692.529 793.2 692.429 794.3 692.429 795.3C692.429 798.567 693.362 801.167 695.229 803.1C697.162 804.967 699.562 805.9 702.429 805.9C705.829 805.9 708.929 804.667 711.729 802.2C714.529 799.733 716.329 796.367 717.129 792.1ZM771.8 746L758.7 820H741.6L754.7 746H771.8ZM794.292 820.8C789.892 820.8 785.926 820.1 782.392 818.7C778.926 817.3 776.192 815.367 774.192 812.9C772.192 810.367 771.192 807.467 771.192 804.2C771.192 803.733 771.259 802.9 771.392 801.7H787.892C787.759 803.767 788.359 805.433 789.692 806.7C791.092 807.9 793.059 808.5 795.592 808.5C797.726 808.5 799.492 808.1 800.892 807.3C802.292 806.5 802.992 805.367 802.992 803.9C802.992 802.5 802.226 801.4 800.692 800.6C799.226 799.733 796.759 798.7 793.292 797.5C789.692 796.3 786.659 795.133 784.192 794C781.792 792.8 779.726 791.1 777.992 788.9C776.259 786.7 775.392 783.933 775.392 780.6C775.392 777.333 776.359 774.4 778.292 771.8C780.226 769.133 782.926 767.067 786.392 765.6C789.926 764.133 793.992 763.4 798.592 763.4C803.192 763.4 807.192 764.167 810.592 765.7C813.992 767.167 816.626 769.233 818.492 771.9C820.359 774.567 821.292 777.567 821.292 780.9L821.192 782.4H805.692C805.826 780.4 805.226 778.8 803.892 777.6C802.559 776.4 800.659 775.8 798.192 775.8C796.259 775.8 794.659 776.2 793.392 777C792.192 777.8 791.592 778.9 791.592 780.3C791.592 781.767 792.392 783 793.992 784C795.659 784.933 798.226 786 801.692 787.2C805.292 788.4 808.259 789.6 810.592 790.8C812.992 791.933 815.026 793.567 816.692 795.7C818.426 797.767 819.292 800.367 819.292 803.5C819.292 807.1 818.192 810.2 815.992 812.8C813.859 815.4 810.892 817.4 807.092 818.8C803.359 820.133 799.092 820.8 794.292 820.8Z" fill="#3C3C3C"/>
</g>
<defs>
<filter id="filter0_d_4536_4122" x="70" y="209" width="944" height="477" filterUnits="userSpaceOnUse" color-interpolation-filters="sRGB">
<feFlood flood-opacity="0" result="BackgroundImageFix"/>
<feColorMatrix in="SourceAlpha" type="matrix" values="0 0 0 0 0 0 0 0 0 0 0 0 0 0 0 0 0 0 127 0" result="hardAlpha"/>
<feOffset dx="2" dy="4"/>
<feGaussianBlur stdDeviation="7"/>
<feColorMatrix type="matrix" values="0 0 0 0 0 0 0 0 0 0 0 0 0 0 0 0 0 0 0.14 0"/>
<feBlend mode="normal" in2="BackgroundImageFix" result="effect1_dropShadow_4536_4122"/>
<feBlend mode="normal" in="SourceGraphic" in2="effect1_dropShadow_4536_4122" result="shape"/>
</filter>
<filter id="filter1_d_4536_4122" x="242.1" y="736" width="595.192" height="102.8" filterUnits="userSpaceOnUse" color-interpolation-filters="sRGB">
<feFlood flood-opacity="0" result="BackgroundImageFix"/>
<feColorMatrix in="SourceAlpha" type="matrix" values="0 0 0 0 0 0 0 0 0 0 0 0 0 0 0 0 0 0 127 0" result="hardAlpha"/>
<feOffset dx="2" dy="4"/>
<feGaussianBlur stdDeviation="7"/>
<feColorMatrix type="matrix" values="0 0 0 0 0 0 0 0 0 0 0 0 0 0 0 0 0 0 0.14 0"/>
<feBlend mode="normal" in2="BackgroundImageFix" result="effect1_dropShadow_4536_4122"/>
<feBlend mode="normal" in="SourceGraphic" in2="effect1_dropShadow_4536_4122" result="shape"/>
</filter>
<linearGradient id="paint0_linear_4536_4122" x1="339" y1="668" x2="997.622" y2="442.988" gradientUnits="userSpaceOnUse">
<stop stop-color="#0E8BFF"/>
<stop offset="1" stop-color="#82C5FF"/>
</linearGradient>
<linearGradient id="paint1_linear_4536_4122" x1="82" y1="444" x2="290" y2="444.015" gradientUnits="userSpaceOnUse">
<stop stop-color="#0E8BFF"/>
<stop offset="1" stop-color="#82C5FF"/>
</linearGradient>
</defs>
</svg>
