<svg width="300" height="300" viewBox="0 0 300 300" fill="none" xmlns="http://www.w3.org/2000/svg">
<path d="M265.398 58.878C264.315 56.4659 263.062 54.134 261.648 51.9C253.428 40.128 238.434 28.962 211.092 28.398C152.364 27.198 169.416 126.126 94.7817 135.066C23.8377 143.514 17.4717 212.4 39.7857 235.8C70.9857 264.426 101.88 277.02 169.332 274.2C220.998 272.058 254.598 261.738 270.942 241.278C281.19 228.444 286.104 211.668 287.742 191.034C291.516 143.178 276.6 83.136 265.398 58.878Z" fill="#407BFF"/>
<path opacity="0.7" d="M265.398 58.878C264.315 56.4659 263.062 54.134 261.648 51.9C253.428 40.128 238.434 28.962 211.092 28.398C152.364 27.198 169.416 126.126 94.7817 135.066C23.8377 143.514 17.4717 212.4 39.7857 235.8C70.9857 264.426 101.88 277.02 169.332 274.2C220.998 272.058 254.598 261.738 270.942 241.278C281.19 228.444 286.104 211.668 287.742 191.034C291.516 143.178 276.6 83.136 265.398 58.878Z" fill="white"/>
<path d="M270.942 241.32C254.598 261.78 220.998 272.1 169.332 274.242C101.88 277.038 71.0101 264.444 39.7861 235.842H265.386L270.942 241.32Z" fill="#999999"/>
<path d="M12.5576 235.818H262.782" stroke="#263238" stroke-linecap="round" stroke-linejoin="round"/>
<path d="M265.397 49.6799V235.818L281.939 252.36" stroke="#263238" stroke-linecap="round" stroke-linejoin="round"/>
<path d="M215.987 60.7019V28.3379" stroke="#263238" stroke-linecap="round" stroke-linejoin="round"/>
<path d="M202.02 74.6698C201.981 72.8116 202.314 70.9643 202.998 69.2363C203.683 67.5082 204.705 65.9342 206.006 64.6064C207.306 63.2785 208.859 62.2236 210.572 61.5035C212.286 60.7833 214.126 60.4124 215.985 60.4124C217.843 60.4124 219.683 60.7833 221.397 61.5035C223.11 62.2236 224.663 63.2785 225.963 64.6064C227.264 65.9342 228.286 67.5082 228.971 69.2363C229.655 70.9643 229.988 72.8116 229.95 74.6698H202.02Z" stroke="#263238" stroke-linecap="round" stroke-linejoin="round"/>
<path d="M39.7856 235.818H28.3496" stroke="#263238" stroke-linecap="round" stroke-linejoin="round"/>
<path d="M86.1415 161.28H74.1475V235.824H86.1415V161.28Z" stroke="#263238" stroke-linecap="round" stroke-linejoin="round"/>
<path d="M69.8575 166.812H21.3955V184.914H69.8575V166.812Z" stroke="#263238" stroke-linecap="round" stroke-linejoin="round"/>
<path d="M69.8575 186.888H21.3955V204.99H69.8575V186.888Z" stroke="#263238" stroke-linecap="round" stroke-linejoin="round"/>
<path d="M69.8575 206.97H21.3955V225.072H69.8575V206.97Z" stroke="#263238" stroke-linecap="round" stroke-linejoin="round"/>
<path d="M40.5293 168.12C40.5293 168.655 40.7417 169.168 41.1198 169.546C41.4978 169.924 42.0106 170.136 42.5453 170.136H48.7073C48.9725 170.137 49.2353 170.085 49.4806 169.984C49.7259 169.883 49.9489 169.735 50.1367 169.548C50.3245 169.36 50.4736 169.138 50.5753 168.893C50.677 168.648 50.7293 168.385 50.7293 168.12" stroke="#263238" stroke-linecap="round" stroke-linejoin="round"/>
<path d="M40.5293 188.196C40.534 188.728 40.7483 189.237 41.1257 189.612C41.5031 189.987 42.0132 190.198 42.5453 190.2H48.7073C49.2436 190.2 49.7579 189.987 50.1371 189.608C50.5163 189.229 50.7293 188.714 50.7293 188.178" stroke="#263238" stroke-linecap="round" stroke-linejoin="round"/>
<path d="M40.5293 208.278C40.5293 208.813 40.7415 209.327 41.1194 209.706C41.4973 210.085 42.0101 210.298 42.5453 210.3H48.7073C48.9728 210.3 49.2358 210.248 49.4811 210.146C49.7264 210.045 49.9493 209.896 50.1371 209.708C50.3248 209.52 50.4738 209.297 50.5754 209.052C50.677 208.807 50.7293 208.544 50.7293 208.278" stroke="#263238" stroke-linecap="round" stroke-linejoin="round"/>
<path d="M72.1857 235.824H17.4717V161.28H72.1857" stroke="#263238" stroke-linecap="round" stroke-linejoin="round"/>
<path d="M118.92 199.632V227.832L133.686 233.034C133.87 233.098 134.029 233.219 134.142 233.378C134.255 233.537 134.316 233.727 134.316 233.922V234.798C134.316 234.943 134.283 235.087 134.218 235.218C134.153 235.348 134.058 235.461 133.942 235.549C133.825 235.636 133.69 235.695 133.546 235.721C133.403 235.747 133.256 235.739 133.116 235.698L117.948 231.246L117.672 234.888C117.655 235.141 117.542 235.379 117.356 235.552C117.169 235.725 116.924 235.82 116.67 235.818H115.89C115.637 235.817 115.393 235.721 115.207 235.549C115.022 235.376 114.908 235.14 114.888 234.888L114.612 231.246L99.45 235.698C99.3103 235.738 99.1633 235.745 99.0205 235.718C98.8777 235.692 98.743 235.633 98.6268 235.545C98.5106 235.458 98.4161 235.345 98.3508 235.216C98.2854 235.086 98.2509 234.943 98.25 234.798V233.922C98.2502 233.727 98.3109 233.537 98.4237 233.378C98.5366 233.219 98.696 233.098 98.88 233.034L113.652 227.832V199.632" stroke="#263238" stroke-linecap="round" stroke-linejoin="round"/>
<path d="M112.182 189.42V181.248" stroke="#263238" stroke-linecap="round" stroke-linejoin="round"/>
<path d="M108.72 181.248V189.42" stroke="#263238" stroke-linecap="round" stroke-linejoin="round"/>
<path d="M97.2 179.796C94.74 179.7 93 178.104 93 175.344V161.034C93.0399 160.168 93.3305 159.332 93.8364 158.628C94.3424 157.924 95.0419 157.382 95.85 157.068" stroke="#263238" stroke-linecap="round" stroke-linejoin="round"/>
<path d="M96.5225 159.222V175.284C96.5225 178.056 98.7365 179.586 101.526 179.094C107.613 177.972 113.874 178.247 119.838 179.898C122.586 180.642 124.746 179.298 124.746 176.538V160.476C124.712 159.775 124.477 159.098 124.069 158.526C123.662 157.954 123.1 157.511 122.448 157.248C114.846 154.674 106.668 154.314 98.8685 156.21C98.2117 156.404 97.6321 156.799 97.2113 157.339C96.7905 157.879 96.5496 158.538 96.5225 159.222Z" stroke="#263238" stroke-linecap="round" stroke-linejoin="round"/>
<path d="M107.85 190.608H99.8701C99.1975 190.607 98.5313 190.739 97.9097 190.996C97.288 191.253 96.7231 191.629 96.2472 192.105C95.7714 192.58 95.3938 193.145 95.1362 193.766C94.8787 194.387 94.7461 195.053 94.7461 195.726C94.7461 196.348 94.9933 196.945 95.4332 197.385C95.8732 197.825 96.4699 198.072 97.0921 198.072H106.374" stroke="#263238" stroke-linecap="round" stroke-linejoin="round"/>
<path d="M109.104 198.072H135.456C136.078 198.072 136.675 197.825 137.115 197.385C137.555 196.945 137.802 196.348 137.802 195.726C137.802 195.053 137.669 194.387 137.412 193.766C137.154 193.145 136.777 192.58 136.301 192.105C135.825 191.629 135.26 191.253 134.638 190.996C134.017 190.739 133.35 190.607 132.678 190.608H111.882C111.209 190.607 110.543 190.739 109.921 190.996C109.3 191.253 108.735 191.629 108.259 192.105C107.783 192.58 107.406 193.145 107.148 193.766C106.89 194.387 106.758 195.053 106.758 195.726C106.758 196.348 107.005 196.945 107.445 197.385C107.885 197.825 108.482 198.072 109.104 198.072Z" stroke="#263238" stroke-linecap="round" stroke-linejoin="round"/>
<path d="M233.178 148.704C233.491 148.698 233.792 148.578 234.025 148.367C234.257 148.157 234.406 147.869 234.444 147.558L237.072 123.096C237.092 122.951 237.08 122.804 237.038 122.665C236.995 122.525 236.923 122.396 236.826 122.288C236.729 122.179 236.61 122.092 236.476 122.034C236.342 121.975 236.198 121.947 236.052 121.95" stroke="#263238" stroke-linecap="round" stroke-linejoin="round"/>
<path d="M168.179 171.216H252.743V163.368H168.179V171.216Z" stroke="#263238" stroke-linecap="round" stroke-linejoin="round"/>
<path d="M138.077 163.362V171.21H166.871" stroke="#263238" stroke-linecap="round" stroke-linejoin="round"/>
<path d="M255.462 162.522V157.614H173.004" stroke="#263238" stroke-linecap="round" stroke-linejoin="round"/>
<path d="M135.353 162.528H171.689V157.62H135.353V162.528Z" stroke="#263238" stroke-linecap="round" stroke-linejoin="round"/>
<path d="M248.153 172.524V235.818H249.983L250.643 172.524" stroke="#263238" stroke-linecap="round" stroke-linejoin="round"/>
<path d="M245.67 172.524L246.324 235.818H248.154V172.524" stroke="#263238" stroke-linecap="round" stroke-linejoin="round"/>
<path d="M223.974 172.524V235.818H225.804L226.458 172.524" stroke="#263238" stroke-linecap="round" stroke-linejoin="round"/>
<path d="M221.489 172.524L222.143 235.818H223.973V172.524" stroke="#263238" stroke-linecap="round" stroke-linejoin="round"/>
<path d="M166.842 172.524V235.818H168.678L169.332 172.524" stroke="#263238" stroke-linecap="round" stroke-linejoin="round"/>
<path d="M164.357 172.524L165.011 235.818H166.841V172.524" stroke="#263238" stroke-linecap="round" stroke-linejoin="round"/>
<path d="M142.661 172.524V235.818H144.491L145.145 172.524" stroke="#263238" stroke-linecap="round" stroke-linejoin="round"/>
<path d="M140.178 172.524L140.832 235.818H142.662V172.524" stroke="#263238" stroke-linecap="round" stroke-linejoin="round"/>
<path d="M204.575 156.09H186.785V157.614H204.575V156.09Z" stroke="#263238" stroke-linecap="round" stroke-linejoin="round"/>
<path d="M237.27 157.614H233.142C232.866 157.614 232.602 157.505 232.408 157.31C232.213 157.115 232.104 156.851 232.104 156.576V155.268H238.308V156.576C238.308 156.851 238.198 157.115 238.004 157.31C237.809 157.505 237.545 157.614 237.27 157.614Z" stroke="#263238" stroke-linecap="round" stroke-linejoin="round"/>
<path d="M238.308 155.28C238.308 154.392 236.916 153.666 235.2 153.666C233.484 153.666 232.098 154.392 232.098 155.28H238.308Z" stroke="#263238" stroke-linecap="round" stroke-linejoin="round"/>
<path d="M232.098 155.28C232.098 154.392 233.49 153.666 235.2 153.666V155.28H232.098Z" stroke="#263238" stroke-linecap="round" stroke-linejoin="round"/>
<path d="M231.887 148.704H197.207C197.061 148.707 196.917 148.678 196.783 148.62C196.649 148.562 196.53 148.475 196.433 148.366C196.336 148.257 196.264 148.129 196.221 147.989C196.179 147.849 196.167 147.702 196.187 147.558L198.815 123.096C198.854 122.785 199.003 122.498 199.235 122.288C199.468 122.077 199.768 121.957 200.081 121.95H234.767C234.913 121.948 235.057 121.977 235.19 122.036C235.324 122.094 235.443 122.181 235.539 122.29C235.636 122.398 235.708 122.527 235.751 122.666C235.794 122.805 235.806 122.952 235.787 123.096L233.159 147.558C233.122 147.87 232.972 148.159 232.738 148.369C232.504 148.58 232.202 148.699 231.887 148.704Z" stroke="#263238" stroke-linecap="round" stroke-linejoin="round"/>
<path d="M219.563 149.358L220.157 154.866H221.465L220.871 149.358" stroke="#263238" stroke-linecap="round" stroke-linejoin="round"/>
<path d="M211.056 149.358L211.65 154.866H220.158L219.564 149.358" stroke="#263238" stroke-linecap="round" stroke-linejoin="round"/>
<path d="M230.442 146.934H199.038C198.911 146.937 198.785 146.912 198.669 146.862C198.552 146.811 198.448 146.736 198.364 146.641C198.279 146.546 198.216 146.434 198.18 146.313C198.143 146.192 198.132 146.064 198.15 145.938L200.43 124.716C200.463 124.445 200.593 124.195 200.796 124.012C200.999 123.829 201.261 123.725 201.534 123.72H232.938C233.065 123.717 233.191 123.742 233.307 123.792C233.424 123.843 233.528 123.918 233.612 124.013C233.696 124.107 233.759 124.219 233.796 124.341C233.833 124.462 233.843 124.59 233.826 124.716L231.546 145.938C231.513 146.209 231.383 146.459 231.18 146.642C230.977 146.825 230.715 146.929 230.442 146.934Z" stroke="#263238" stroke-linecap="round" stroke-linejoin="round"/>
<path d="M222.779 154.866H205.529V157.62H222.779V154.866Z" stroke="#263238" stroke-linecap="round" stroke-linejoin="round"/>
<path d="M227.825 154.866H222.779V157.62H227.825V154.866Z" stroke="#263238" stroke-linecap="round" stroke-linejoin="round"/>
<path d="M244.2 128.91H187.71V141.636H244.2V128.91Z" fill="white" stroke="#263238" stroke-linecap="round" stroke-linejoin="round"/>
<path d="M194.537 136.608L193.625 135.912L193.775 137.028C193.788 137.101 193.785 137.177 193.766 137.249C193.747 137.321 193.712 137.389 193.664 137.446C193.615 137.503 193.555 137.549 193.488 137.581C193.42 137.612 193.346 137.628 193.271 137.628C193.196 137.628 193.122 137.612 193.055 137.581C192.987 137.549 192.927 137.503 192.879 137.446C192.83 137.389 192.796 137.321 192.776 137.249C192.757 137.177 192.754 137.101 192.767 137.028L192.917 135.912L191.999 136.608C191.942 136.651 191.876 136.681 191.806 136.696C191.736 136.712 191.664 136.713 191.594 136.699C191.523 136.685 191.457 136.656 191.399 136.614C191.34 136.573 191.291 136.519 191.255 136.458C191.219 136.396 191.196 136.327 191.188 136.255C191.181 136.184 191.189 136.112 191.212 136.043C191.234 135.975 191.271 135.913 191.32 135.86C191.369 135.807 191.429 135.766 191.495 135.738L192.545 135.3L191.495 134.862C191.429 134.833 191.369 134.791 191.32 134.738C191.271 134.685 191.234 134.622 191.211 134.553C191.189 134.484 191.181 134.412 191.188 134.34C191.196 134.268 191.219 134.198 191.255 134.136C191.291 134.073 191.339 134.019 191.398 133.977C191.456 133.935 191.523 133.906 191.593 133.892C191.663 133.878 191.736 133.879 191.806 133.895C191.876 133.911 191.942 133.942 191.999 133.986L192.911 134.682L192.761 133.566C192.748 133.492 192.751 133.417 192.77 133.344C192.79 133.272 192.824 133.205 192.873 133.148C192.921 133.091 192.981 133.045 193.049 133.013C193.116 132.982 193.19 132.966 193.265 132.966C193.34 132.966 193.414 132.982 193.482 133.013C193.549 133.045 193.609 133.091 193.658 133.148C193.706 133.205 193.741 133.272 193.76 133.344C193.779 133.417 193.782 133.492 193.769 133.566L193.619 134.682L194.531 133.986C194.588 133.942 194.654 133.911 194.724 133.895C194.794 133.879 194.867 133.878 194.937 133.892C195.008 133.906 195.074 133.935 195.132 133.977C195.191 134.019 195.239 134.073 195.275 134.136C195.312 134.198 195.334 134.268 195.342 134.34C195.349 134.412 195.342 134.484 195.319 134.553C195.296 134.622 195.259 134.685 195.21 134.738C195.161 134.791 195.102 134.833 195.035 134.862L193.985 135.3L195.035 135.738C195.101 135.766 195.161 135.807 195.21 135.86C195.259 135.913 195.296 135.975 195.319 136.043C195.341 136.112 195.349 136.184 195.342 136.255C195.334 136.327 195.311 136.396 195.275 136.458C195.239 136.519 195.19 136.571 195.132 136.612C195.074 136.653 195.009 136.681 194.939 136.696C194.87 136.71 194.798 136.709 194.729 136.694C194.66 136.679 194.594 136.65 194.537 136.608Z" fill="#263238"/>
<path d="M202.68 136.608L201.768 135.912L201.918 137.028C201.931 137.101 201.928 137.177 201.908 137.249C201.889 137.321 201.854 137.389 201.806 137.446C201.758 137.503 201.698 137.549 201.63 137.581C201.562 137.612 201.488 137.628 201.414 137.628C201.339 137.628 201.265 137.612 201.198 137.581C201.13 137.549 201.07 137.503 201.023 137.446C200.975 137.388 200.941 137.321 200.922 137.249C200.904 137.177 200.901 137.101 200.916 137.028L201.066 135.912L200.154 136.608C200.096 136.651 200.03 136.681 199.959 136.697C199.889 136.712 199.816 136.713 199.745 136.699C199.675 136.685 199.608 136.656 199.549 136.615C199.49 136.573 199.441 136.52 199.404 136.458C199.368 136.395 199.347 136.326 199.34 136.254C199.334 136.183 199.342 136.111 199.366 136.043C199.389 135.975 199.426 135.912 199.475 135.86C199.524 135.807 199.584 135.766 199.65 135.738L200.694 135.3L199.65 134.862C199.583 134.833 199.524 134.791 199.475 134.738C199.426 134.685 199.388 134.622 199.365 134.554C199.342 134.485 199.333 134.413 199.34 134.341C199.347 134.269 199.368 134.199 199.404 134.136C199.44 134.073 199.489 134.019 199.548 133.977C199.607 133.935 199.674 133.906 199.745 133.892C199.816 133.877 199.889 133.878 199.959 133.895C200.03 133.911 200.096 133.942 200.154 133.986L201.066 134.682L200.916 133.566C200.901 133.493 200.904 133.417 200.922 133.345C200.941 133.273 200.975 133.205 201.023 133.148C201.07 133.091 201.13 133.044 201.198 133.013C201.265 132.981 201.339 132.965 201.414 132.966C201.488 132.966 201.562 132.982 201.63 133.013C201.698 133.045 201.758 133.091 201.806 133.148C201.854 133.205 201.889 133.272 201.908 133.344C201.928 133.417 201.931 133.492 201.918 133.566L201.768 134.682L202.68 133.986C202.737 133.942 202.803 133.911 202.873 133.895C202.943 133.879 203.015 133.878 203.086 133.892C203.156 133.906 203.223 133.935 203.281 133.977C203.339 134.019 203.388 134.073 203.424 134.136C203.46 134.198 203.483 134.268 203.49 134.34C203.498 134.412 203.49 134.484 203.467 134.553C203.445 134.622 203.408 134.685 203.359 134.738C203.31 134.791 203.25 134.833 203.184 134.862L202.14 135.3L203.184 135.738C203.25 135.766 203.31 135.807 203.358 135.86C203.407 135.913 203.444 135.975 203.467 136.043C203.49 136.112 203.498 136.184 203.49 136.255C203.483 136.327 203.46 136.396 203.424 136.458C203.387 136.519 203.338 136.573 203.28 136.614C203.222 136.656 203.155 136.685 203.085 136.699C203.015 136.713 202.943 136.712 202.873 136.696C202.803 136.681 202.737 136.651 202.68 136.608Z" fill="#263238"/>
<path d="M210.822 136.608L209.91 135.912L210.06 137.028C210.074 137.101 210.072 137.177 210.053 137.249C210.035 137.321 210.001 137.388 209.953 137.446C209.905 137.503 209.846 137.549 209.778 137.581C209.71 137.612 209.637 137.628 209.562 137.628C209.487 137.629 209.412 137.614 209.344 137.583C209.276 137.552 209.215 137.506 209.167 137.448C209.118 137.391 209.084 137.323 209.065 137.25C209.046 137.178 209.044 137.102 209.058 137.028L209.208 135.912L208.296 136.608C208.239 136.651 208.173 136.681 208.103 136.697C208.033 136.712 207.961 136.713 207.89 136.699C207.82 136.685 207.754 136.656 207.696 136.614C207.637 136.573 207.588 136.52 207.552 136.458C207.516 136.396 207.493 136.327 207.485 136.255C207.478 136.184 207.486 136.112 207.508 136.043C207.531 135.975 207.568 135.913 207.617 135.86C207.666 135.807 207.726 135.766 207.792 135.738L208.836 135.3L207.792 134.862C207.725 134.833 207.666 134.791 207.617 134.738C207.568 134.685 207.531 134.622 207.508 134.553C207.485 134.484 207.478 134.412 207.485 134.34C207.493 134.268 207.516 134.198 207.552 134.136C207.588 134.073 207.636 134.019 207.695 133.977C207.753 133.935 207.819 133.906 207.89 133.892C207.96 133.878 208.033 133.879 208.103 133.895C208.173 133.911 208.239 133.942 208.296 133.986L209.208 134.682L209.058 133.566C209.044 133.492 209.046 133.416 209.065 133.343C209.084 133.271 209.118 133.203 209.167 133.146C209.215 133.088 209.276 133.042 209.344 133.011C209.412 132.98 209.487 132.965 209.562 132.966C209.637 132.965 209.71 132.982 209.778 133.013C209.846 133.044 209.905 133.091 209.953 133.148C210.001 133.205 210.035 133.273 210.053 133.345C210.072 133.417 210.074 133.493 210.06 133.566L209.91 134.682L210.822 133.986C210.879 133.942 210.945 133.911 211.015 133.895C211.085 133.879 211.158 133.878 211.228 133.892C211.298 133.906 211.365 133.935 211.423 133.977C211.482 134.019 211.53 134.073 211.566 134.136C211.601 134.199 211.623 134.269 211.63 134.341C211.636 134.413 211.628 134.485 211.604 134.554C211.581 134.622 211.544 134.685 211.495 134.738C211.446 134.791 211.386 134.833 211.32 134.862L210.276 135.3L211.32 135.738C211.386 135.766 211.446 135.807 211.495 135.86C211.544 135.913 211.581 135.975 211.603 136.043C211.626 136.112 211.634 136.184 211.627 136.255C211.619 136.327 211.596 136.396 211.56 136.458C211.524 136.519 211.475 136.571 211.417 136.612C211.359 136.653 211.293 136.681 211.224 136.696C211.155 136.71 211.083 136.709 211.014 136.694C210.945 136.679 210.879 136.65 210.822 136.608Z" fill="#263238"/>
<path d="M219 136.608L218.082 135.912L218.232 137.028C218.246 137.101 218.244 137.177 218.225 137.249C218.207 137.321 218.173 137.388 218.125 137.446C218.077 137.503 218.017 137.549 217.95 137.581C217.882 137.612 217.808 137.628 217.734 137.628C217.659 137.628 217.585 137.612 217.517 137.581C217.449 137.549 217.389 137.503 217.341 137.446C217.293 137.389 217.258 137.321 217.239 137.249C217.22 137.177 217.217 137.101 217.23 137.028L217.38 135.912L216.468 136.608C216.41 136.651 216.345 136.681 216.275 136.696C216.205 136.712 216.133 136.713 216.062 136.699C215.992 136.685 215.926 136.656 215.867 136.614C215.809 136.573 215.76 136.519 215.724 136.458C215.687 136.396 215.665 136.327 215.657 136.255C215.65 136.184 215.658 136.112 215.68 136.043C215.703 135.975 215.74 135.913 215.789 135.86C215.838 135.807 215.898 135.766 215.964 135.738L217.014 135.3L215.964 134.862C215.897 134.833 215.838 134.791 215.789 134.738C215.74 134.685 215.703 134.622 215.68 134.553C215.657 134.484 215.65 134.412 215.657 134.34C215.665 134.268 215.687 134.198 215.724 134.136C215.759 134.073 215.808 134.019 215.866 133.977C215.925 133.935 215.991 133.906 216.062 133.892C216.132 133.878 216.205 133.879 216.275 133.895C216.345 133.911 216.411 133.942 216.468 133.986L217.38 134.682L217.23 133.566C217.217 133.492 217.22 133.417 217.239 133.344C217.258 133.272 217.293 133.205 217.341 133.148C217.389 133.091 217.449 133.045 217.517 133.013C217.585 132.982 217.659 132.966 217.734 132.966C217.808 132.965 217.882 132.981 217.95 133.013C218.017 133.044 218.077 133.091 218.125 133.148C218.173 133.205 218.207 133.273 218.225 133.345C218.244 133.417 218.246 133.493 218.232 133.566L218.082 134.682L219 133.986C219.057 133.942 219.123 133.911 219.193 133.895C219.263 133.879 219.335 133.878 219.406 133.892C219.476 133.906 219.543 133.935 219.601 133.977C219.66 134.019 219.708 134.073 219.744 134.136C219.779 134.199 219.801 134.268 219.808 134.34C219.815 134.411 219.807 134.484 219.785 134.552C219.762 134.62 219.725 134.683 219.677 134.737C219.629 134.79 219.57 134.833 219.504 134.862L218.454 135.3L219.498 135.738C219.564 135.766 219.624 135.807 219.672 135.86C219.721 135.912 219.759 135.975 219.782 136.043C219.805 136.111 219.814 136.183 219.807 136.254C219.801 136.326 219.779 136.395 219.744 136.458C219.707 136.519 219.659 136.573 219.6 136.614C219.542 136.656 219.475 136.685 219.405 136.699C219.335 136.713 219.263 136.712 219.193 136.696C219.123 136.681 219.057 136.651 219 136.608Z" fill="#263238"/>
<path d="M227.111 136.608L226.199 135.912L226.349 137.028C226.362 137.101 226.359 137.177 226.34 137.249C226.321 137.321 226.286 137.389 226.238 137.446C226.19 137.503 226.129 137.549 226.062 137.581C225.994 137.612 225.92 137.628 225.845 137.628C225.77 137.628 225.696 137.612 225.629 137.581C225.561 137.549 225.501 137.503 225.453 137.446C225.405 137.389 225.37 137.321 225.35 137.249C225.331 137.177 225.328 137.101 225.341 137.028L225.491 135.912L224.579 136.608C224.522 136.651 224.456 136.681 224.386 136.696C224.316 136.712 224.244 136.713 224.174 136.699C224.104 136.685 224.037 136.656 223.979 136.614C223.92 136.573 223.872 136.519 223.835 136.458C223.799 136.396 223.776 136.327 223.769 136.255C223.761 136.184 223.769 136.112 223.792 136.043C223.814 135.975 223.851 135.913 223.9 135.86C223.949 135.807 224.009 135.766 224.075 135.738L225.125 135.3L224.075 134.862C224.009 134.833 223.949 134.791 223.9 134.738C223.851 134.685 223.814 134.622 223.791 134.553C223.769 134.484 223.761 134.412 223.768 134.34C223.776 134.268 223.799 134.198 223.835 134.136C223.871 134.073 223.919 134.019 223.978 133.977C224.036 133.935 224.103 133.906 224.173 133.892C224.244 133.878 224.316 133.879 224.386 133.895C224.456 133.911 224.522 133.942 224.579 133.986L225.491 134.682L225.341 133.566C225.328 133.492 225.331 133.417 225.35 133.344C225.37 133.272 225.405 133.205 225.453 133.148C225.501 133.091 225.561 133.045 225.629 133.013C225.696 132.982 225.77 132.966 225.845 132.966C225.92 132.966 225.994 132.982 226.062 133.013C226.129 133.045 226.19 133.091 226.238 133.148C226.286 133.205 226.321 133.272 226.34 133.344C226.359 133.417 226.362 133.492 226.349 133.566L226.199 134.64L227.111 133.944C227.168 133.9 227.234 133.869 227.304 133.853C227.374 133.837 227.447 133.836 227.517 133.85C227.588 133.864 227.654 133.893 227.713 133.935C227.771 133.977 227.819 134.031 227.855 134.094C227.892 134.156 227.914 134.226 227.922 134.298C227.929 134.37 227.922 134.442 227.899 134.511C227.876 134.58 227.839 134.643 227.79 134.696C227.741 134.749 227.682 134.791 227.615 134.82L226.565 135.258L227.615 135.696C227.681 135.724 227.741 135.765 227.79 135.818C227.839 135.871 227.876 135.933 227.899 136.001C227.921 136.07 227.929 136.142 227.922 136.213C227.914 136.285 227.892 136.354 227.855 136.416C227.823 136.481 227.776 136.538 227.72 136.584C227.663 136.63 227.597 136.663 227.527 136.681C227.456 136.699 227.383 136.702 227.311 136.689C227.239 136.677 227.171 136.649 227.111 136.608Z" fill="#263238"/>
<path d="M240.725 135.276C240.725 135.276 239.063 137.346 237.017 137.346C234.971 137.346 233.315 135.276 233.315 135.276C233.315 135.276 234.971 133.2 236.999 133.2C239.027 133.2 240.725 135.276 240.725 135.276Z" fill="white" stroke="#263238" stroke-linecap="round" stroke-linejoin="round"/>
<path d="M238.295 135.276C238.296 135.529 238.222 135.777 238.083 135.988C237.943 136.199 237.744 136.363 237.51 136.461C237.277 136.559 237.02 136.585 236.772 136.536C236.523 136.487 236.295 136.366 236.116 136.188C235.936 136.009 235.814 135.782 235.764 135.533C235.714 135.285 235.739 135.028 235.836 134.794C235.933 134.56 236.096 134.36 236.307 134.22C236.517 134.079 236.764 134.004 237.017 134.004C237.185 134.003 237.351 134.035 237.506 134.099C237.661 134.163 237.802 134.256 237.921 134.374C238.039 134.493 238.134 134.633 238.198 134.788C238.262 134.942 238.295 135.108 238.295 135.276Z" fill="#999999" stroke="#263238" stroke-linecap="round" stroke-linejoin="round"/>
<path d="M226.428 190.716C226.428 190.716 219.558 204.906 213.522 197.706C207.486 190.506 217.686 187.806 217.686 187.806C217.686 187.806 205.398 189.258 205.398 182.598C205.398 175.938 214.146 180.102 214.146 180.102C214.146 180.102 202.782 171.24 208.314 167.502C212.166 164.898 221.43 174.3 221.43 174.3C221.43 174.3 217.89 165.108 222.03 164.898C226.17 164.688 228.906 178.02 228.906 178.02C228.906 178.02 231.192 168.198 235.356 171.024C239.52 173.85 232.086 184.758 232.086 184.758C232.086 184.758 237.438 179.472 238.896 183.222C240.354 186.972 232.086 189.468 232.086 189.468C232.086 189.468 232.026 203.214 227.448 201.546C222.87 199.878 226.428 190.716 226.428 190.716Z" fill="#407BFF"/>
<path d="M241.074 221.532C241.074 221.532 241.074 189.888 222.246 180.306" stroke="#263238" stroke-linecap="round" stroke-linejoin="round"/>
<path d="M228.978 185.358C228.978 185.358 223.722 186.294 217.788 192.75" stroke="#263238" stroke-linecap="round" stroke-linejoin="round"/>
<path d="M225.3 182.166C225.3 182.166 219.504 183.936 213.9 183.294" stroke="#263238" stroke-linecap="round" stroke-linejoin="round"/>
<path d="M226.933 183.432C229.64 181.619 231.777 179.074 233.095 176.094" stroke="#263238" stroke-linecap="round" stroke-linejoin="round"/>
<path d="M262.146 200.046C262.146 200.046 267.942 212.016 273.036 205.944C278.13 199.872 269.52 197.586 269.52 197.586C269.52 197.586 279.888 198.816 279.888 193.194C279.888 187.572 272.508 191.082 272.508 191.082C272.508 191.082 282.108 183.606 277.428 180.45C274.176 178.26 266.358 186.186 266.358 186.186C266.358 186.186 269.358 178.434 265.836 178.26C262.314 178.086 260.034 189.33 260.034 189.33C260.034 189.33 258.102 181.038 254.592 183.426C251.082 185.814 257.352 195.018 257.352 195.018C257.352 195.018 252.834 190.554 251.604 193.722C250.374 196.89 257.352 198.99 257.352 198.99C257.352 198.99 257.4 210.582 261.264 209.19C265.128 207.798 262.146 200.046 262.146 200.046Z" fill="#407BFF"/>
<mask id="mask0_6171_120191" style="mask-type:luminance" maskUnits="userSpaceOnUse" x="251" y="178" width="29" height="32">
<path d="M262.146 200.046C262.146 200.046 267.942 212.016 273.036 205.944C278.13 199.872 269.52 197.586 269.52 197.586C269.52 197.586 279.888 198.816 279.888 193.194C279.888 187.572 272.508 191.082 272.508 191.082C272.508 191.082 282.108 183.606 277.428 180.45C274.176 178.26 266.358 186.186 266.358 186.186C266.358 186.186 269.358 178.434 265.836 178.26C262.314 178.086 260.034 189.33 260.034 189.33C260.034 189.33 258.102 181.038 254.592 183.426C251.082 185.814 257.352 195.018 257.352 195.018C257.352 195.018 252.834 190.554 251.604 193.722C250.374 196.89 257.352 198.99 257.352 198.99C257.352 198.99 257.4 210.582 261.264 209.19C265.128 207.798 262.146 200.046 262.146 200.046Z" fill="white"/>
</mask>
<g mask="url(#mask0_6171_120191)">
<path opacity="0.1" d="M262.146 200.046C262.146 200.046 267.942 212.016 273.036 205.944C278.13 199.872 269.52 197.586 269.52 197.586C269.52 197.586 279.888 198.816 279.888 193.194C279.888 187.572 272.508 191.082 272.508 191.082C272.508 191.082 282.108 183.606 277.428 180.45C274.176 178.26 266.358 186.186 266.358 186.186C266.358 186.186 269.358 178.434 265.836 178.26C262.314 178.086 260.034 189.33 260.034 189.33C260.034 189.33 258.102 181.038 254.592 183.426C251.082 185.814 257.352 195.018 257.352 195.018C257.352 195.018 252.834 190.554 251.604 193.722C250.374 196.89 257.352 198.99 257.352 198.99C257.352 198.99 257.4 210.582 261.264 209.19C265.128 207.798 262.146 200.046 262.146 200.046Z" fill="black"/>
</g>
<path d="M261.444 193.452C253.254 199.362 252.084 219.852 252.084 219.852" stroke="#263238" stroke-linecap="round" stroke-linejoin="round"/>
<path d="M259.026 195.828C262.331 197.101 265.307 199.103 267.732 201.684" stroke="#263238" stroke-linecap="round" stroke-linejoin="round"/>
<path d="M264.09 183.432C264.09 187.908 261.438 193.452 261.438 193.452L263.382 194.052" stroke="#263238" stroke-linecap="round" stroke-linejoin="round"/>
<path d="M264.984 194.532C264.984 194.532 269.922 195.636 273.666 194.532" stroke="#263238" stroke-linecap="round" stroke-linejoin="round"/>
<path d="M244.53 169.2C244.53 169.2 230.664 169.8 231.534 162.372C232.26 156.168 242.076 160.314 242.076 160.314C242.076 160.314 234.024 150.924 239.556 147.216C245.088 143.508 248.4 154.308 248.4 154.308C248.4 154.308 251.928 138.708 258.114 141.198C262.422 142.95 255.408 155.88 255.408 155.88C255.408 155.88 263.562 150.318 266.058 153.66C268.554 157.002 256.494 164.178 256.494 164.178C256.494 164.178 265.926 160.608 265.896 165.642C265.866 170.676 252.666 170.574 252.666 170.574C252.666 170.574 260.04 172.08 257.736 175.374C255.432 178.668 248.736 173.196 248.736 173.196C248.736 173.196 239.706 179.73 238.536 174.996C237.366 170.262 244.53 169.2 244.53 169.2Z" fill="#407BFF"/>
<mask id="mask1_6171_120191" style="mask-type:luminance" maskUnits="userSpaceOnUse" x="231" y="140" width="36" height="37">
<path d="M244.53 169.2C244.53 169.2 230.664 169.8 231.534 162.372C232.26 156.168 242.076 160.314 242.076 160.314C242.076 160.314 234.024 150.924 239.556 147.216C245.088 143.508 248.4 154.308 248.4 154.308C248.4 154.308 251.928 138.708 258.114 141.198C262.422 142.95 255.408 155.88 255.408 155.88C255.408 155.88 263.562 150.318 266.058 153.66C268.554 157.002 256.494 164.178 256.494 164.178C256.494 164.178 265.926 160.608 265.896 165.642C265.866 170.676 252.666 170.574 252.666 170.574C252.666 170.574 260.04 172.08 257.736 175.374C255.432 178.668 248.736 173.196 248.736 173.196C248.736 173.196 239.706 179.73 238.536 174.996C237.366 170.262 244.53 169.2 244.53 169.2Z" fill="white"/>
</mask>
<g mask="url(#mask1_6171_120191)">
<path opacity="0.2" d="M244.53 169.2C244.53 169.2 230.664 169.8 231.534 162.372C232.26 156.168 242.076 160.314 242.076 160.314C242.076 160.314 234.024 150.924 239.556 147.216C245.088 143.508 248.4 154.308 248.4 154.308C248.4 154.308 251.928 138.708 258.114 141.198C262.422 142.95 255.408 155.88 255.408 155.88C255.408 155.88 263.562 150.318 266.058 153.66C268.554 157.002 256.494 164.178 256.494 164.178C256.494 164.178 265.926 160.608 265.896 165.642C265.866 170.676 252.666 170.574 252.666 170.574C252.666 170.574 260.04 172.08 257.736 175.374C255.432 178.668 248.736 173.196 248.736 173.196C248.736 173.196 239.706 179.73 238.536 174.996C237.366 170.262 244.53 169.2 244.53 169.2Z" fill="white"/>
</g>
<path d="M246.444 221.532C246.444 221.532 244.23 182.364 252.078 156.132" stroke="#263238" stroke-linecap="round" stroke-linejoin="round"/>
<path d="M236.814 163.284C236.814 163.284 242.658 162.792 249.564 166.584" stroke="#263238" stroke-linecap="round" stroke-linejoin="round"/>
<path d="M241.675 150.948C241.675 150.948 247.519 156.672 249.901 164.898" stroke="#263238" stroke-linecap="round" stroke-linejoin="round"/>
<path d="M250.423 162.474C250.423 162.474 254.221 158.274 259.027 157.194" stroke="#263238" stroke-linecap="round" stroke-linejoin="round"/>
<path d="M261.318 217.656H231.456L233.856 244.734C233.882 245.019 234.013 245.284 234.224 245.477C234.434 245.67 234.71 245.778 234.996 245.778L235.596 252.468C235.623 252.753 235.755 253.019 235.967 253.212C236.179 253.405 236.455 253.512 236.742 253.512H256.032C256.318 253.512 256.594 253.404 256.805 253.211C257.016 253.018 257.147 252.753 257.172 252.468L257.772 245.778C258.059 245.778 258.335 245.671 258.547 245.478C258.759 245.285 258.891 245.019 258.918 244.734L261.318 217.656Z" fill="white" stroke="#263238" stroke-linecap="round" stroke-linejoin="round"/>
<path d="M261.511 219.87H231.265C230.699 219.868 230.157 219.643 229.756 219.243C229.356 218.842 229.13 218.3 229.129 217.734C229.13 217.168 229.356 216.626 229.756 216.225C230.157 215.825 230.699 215.599 231.265 215.598H261.511C262.076 215.599 262.618 215.825 263.017 216.226C263.417 216.626 263.641 217.168 263.641 217.734C263.641 218.299 263.417 218.842 263.017 219.242C262.618 219.643 262.076 219.868 261.511 219.87Z" fill="#263238" stroke="#263238" stroke-linecap="round" stroke-linejoin="round"/>
<path d="M252.265 245.856H254.245" stroke="#263238" stroke-linecap="round" stroke-linejoin="round"/>
<path d="M238.524 245.856H250.278" stroke="#263238" stroke-linecap="round" stroke-linejoin="round"/>
<path d="M180.156 23.238H171.978V179.646H180.156C181.458 179.644 182.706 179.126 183.626 178.205C184.547 177.283 185.064 176.034 185.064 174.732V28.152C185.064 26.8498 184.547 25.6008 183.626 24.6794C182.706 23.7581 181.458 23.2396 180.156 23.238Z" fill="#999999" stroke="#263238" stroke-linecap="round" stroke-linejoin="round"/>
<path d="M177.948 23.238H106.782C104.297 23.238 102.282 25.2528 102.282 27.738V175.146C102.282 177.631 104.297 179.646 106.782 179.646H177.948C180.434 179.646 182.448 177.631 182.448 175.146V27.738C182.448 25.2528 180.434 23.238 177.948 23.238Z" fill="#263238" stroke="#263238" stroke-linecap="round" stroke-linejoin="round"/>
<path d="M156.245 30.1201C156.13 31.0784 155.667 31.9613 154.946 32.6024C154.224 33.2434 153.293 33.5983 152.327 33.6001H131.723C130.757 33.601 129.823 33.2473 129.1 32.6059C128.377 31.9645 127.914 31.08 127.799 30.1201C127.678 29.1667 127.213 28.2902 126.492 27.6551C125.771 27.02 124.842 26.6697 123.881 26.6701H109.391C108.347 26.6701 107.346 27.0836 106.606 27.8201C105.866 28.5566 105.448 29.5562 105.443 30.6001V172.266C105.445 173.313 105.861 174.316 106.601 175.056C107.342 175.796 108.345 176.213 109.391 176.214H175.337C176.384 176.214 177.389 175.798 178.129 175.058C178.869 174.317 179.285 173.313 179.285 172.266V30.6001C179.286 30.0814 179.185 29.5677 178.986 29.0883C178.788 28.609 178.498 28.1734 178.131 27.8067C177.764 27.4399 177.328 27.1491 176.849 26.951C176.37 26.7529 175.856 26.6513 175.337 26.6521H160.163C159.2 26.6523 158.269 27.005 157.547 27.6438C156.826 28.2827 156.363 29.1634 156.245 30.1201Z" fill="#407BFF"/>
<mask id="mask2_6171_120191" style="mask-type:luminance" maskUnits="userSpaceOnUse" x="105" y="26" width="75" height="151">
<path d="M156.245 30.1201C156.13 31.0784 155.667 31.9613 154.946 32.6024C154.224 33.2434 153.293 33.5983 152.327 33.6001H131.723C130.757 33.601 129.823 33.2473 129.1 32.6059C128.377 31.9645 127.914 31.08 127.799 30.1201C127.678 29.1667 127.213 28.2902 126.492 27.6551C125.771 27.02 124.842 26.6697 123.881 26.6701H109.391C108.347 26.6701 107.346 27.0836 106.606 27.8201C105.866 28.5566 105.448 29.5562 105.443 30.6001V172.266C105.445 173.313 105.861 174.316 106.601 175.056C107.342 175.796 108.345 176.213 109.391 176.214H175.337C176.384 176.214 177.389 175.798 178.129 175.058C178.869 174.317 179.285 173.313 179.285 172.266V30.6001C179.286 30.0814 179.185 29.5677 178.986 29.0883C178.788 28.609 178.498 28.1734 178.131 27.8067C177.764 27.4399 177.328 27.1491 176.849 26.951C176.37 26.7529 175.856 26.6513 175.337 26.6521H160.163C159.2 26.6523 158.269 27.005 157.547 27.6438C156.826 28.2827 156.363 29.1634 156.245 30.1201Z" fill="white"/>
</mask>
<g mask="url(#mask2_6171_120191)">
<path opacity="0.4" d="M127.194 186.162H103.098L161.184 15.1621H185.28L127.194 186.162Z" fill="white"/>
<path opacity="0.4" d="M144.042 186.162H137.634L195.726 15.1621H202.134L144.042 186.162Z" fill="white"/>
</g>
<path d="M156.245 30.1201C156.13 31.0784 155.667 31.9613 154.946 32.6024C154.224 33.2434 153.293 33.5983 152.327 33.6001H131.723C130.757 33.601 129.823 33.2473 129.1 32.6059C128.377 31.9645 127.914 31.08 127.799 30.1201C127.678 29.1667 127.213 28.2902 126.492 27.6551C125.771 27.02 124.842 26.6697 123.881 26.6701H109.391C108.347 26.6701 107.346 27.0836 106.606 27.8201C105.866 28.5566 105.448 29.5562 105.443 30.6001V172.266C105.445 173.313 105.861 174.316 106.601 175.056C107.342 175.796 108.345 176.213 109.391 176.214H175.337C176.384 176.214 177.389 175.798 178.129 175.058C178.869 174.317 179.285 173.313 179.285 172.266V30.6001C179.286 30.0814 179.185 29.5677 178.986 29.0883C178.788 28.609 178.498 28.1734 178.131 27.8067C177.764 27.4399 177.328 27.1491 176.849 26.951C176.37 26.7529 175.856 26.6513 175.337 26.6521H160.163C159.2 26.6523 158.269 27.005 157.547 27.6438C156.826 28.2827 156.363 29.1634 156.245 30.1201Z" stroke="#263238" stroke-linecap="round" stroke-linejoin="round"/>
<path d="M135.276 28.6979C135.276 29.054 135.17 29.402 134.972 29.698C134.775 29.994 134.494 30.2247 134.165 30.3609C133.836 30.4972 133.474 30.5328 133.125 30.4634C132.775 30.3939 132.455 30.2225 132.203 29.9707C131.951 29.719 131.78 29.3983 131.71 29.0491C131.641 28.6999 131.677 28.338 131.813 28.0091C131.949 27.6802 132.18 27.3991 132.476 27.2013C132.772 27.0035 133.12 26.8979 133.476 26.8979C133.953 26.8979 134.411 27.0876 134.749 27.4252C135.086 27.7627 135.276 28.2206 135.276 28.6979Z" fill="#407BFF" stroke="#263238" stroke-linecap="round" stroke-linejoin="round"/>
<path d="M149.507 26.9521H140.399C139.936 26.9521 139.492 27.1361 139.165 27.4635C138.837 27.791 138.653 28.2351 138.653 28.6982C138.653 29.1612 138.837 29.6053 139.165 29.9328C139.492 30.2602 139.936 30.4442 140.399 30.4442H149.507C149.97 30.4442 150.414 30.2602 150.742 29.9328C151.069 29.6053 151.253 29.1612 151.253 28.6982C151.253 28.2351 151.069 27.791 150.742 27.4635C150.414 27.1361 149.97 26.9521 149.507 26.9521Z" fill="#999999" stroke="#263238" stroke-linecap="round" stroke-linejoin="round"/>
<path d="M150.6 168.522H133.092C132.615 168.522 132.157 168.712 131.819 169.049C131.482 169.387 131.292 169.845 131.292 170.322C131.292 170.799 131.482 171.257 131.819 171.595C132.157 171.932 132.615 172.122 133.092 172.122H150.6C151.077 172.122 151.535 171.932 151.873 171.595C152.21 171.257 152.4 170.799 152.4 170.322C152.4 169.845 152.21 169.387 151.873 169.049C151.535 168.712 151.077 168.522 150.6 168.522Z" fill="#999999" stroke="#263238" stroke-linecap="round" stroke-linejoin="round"/>
<path d="M185.958 63.042V51.342C185.958 51.0826 185.855 50.8339 185.671 50.6505C185.488 50.4671 185.239 50.364 184.98 50.364C184.721 50.364 184.472 50.4671 184.288 50.6505C184.105 50.8339 184.002 51.0826 184.002 51.342V63.042C184.002 63.3014 184.105 63.5502 184.288 63.7336C184.472 63.917 184.721 64.02 184.98 64.02C185.239 64.02 185.488 63.917 185.671 63.7336C185.855 63.5502 185.958 63.3014 185.958 63.042Z" fill="#263238"/>
<path d="M185.958 71.7302V67.8362C185.958 67.5768 185.855 67.328 185.671 67.1446C185.488 66.9612 185.239 66.8582 184.98 66.8582C184.721 66.8582 184.472 66.9612 184.288 67.1446C184.105 67.328 184.002 67.5768 184.002 67.8362V71.7302C184.002 71.9895 184.105 72.2383 184.288 72.4217C184.472 72.6051 184.721 72.7082 184.98 72.7082C185.239 72.7082 185.488 72.6051 185.671 72.4217C185.855 72.2383 185.958 71.9895 185.958 71.7302Z" fill="#263238"/>
<path d="M187.776 80.3582H99.5098V100.242H187.776V80.3582Z" fill="white" stroke="#263238" stroke-linecap="round" stroke-linejoin="round"/>
<path d="M110.178 92.4L108.75 91.314L108.984 93.06C108.999 93.1717 108.991 93.2854 108.959 93.3935C108.926 93.5016 108.872 93.6015 108.798 93.6867C108.724 93.7719 108.633 93.8404 108.53 93.8875C108.428 93.9347 108.317 93.9594 108.204 93.96C108.091 93.9602 107.979 93.9361 107.876 93.8894C107.772 93.8426 107.68 93.7743 107.606 93.689C107.531 93.6037 107.476 93.5034 107.444 93.3949C107.411 93.2864 107.402 93.1722 107.418 93.06L107.652 91.314L106.2 92.4C106.111 92.4681 106.008 92.5166 105.899 92.5421C105.79 92.5676 105.677 92.5697 105.567 92.5481C105.457 92.5266 105.352 92.4819 105.261 92.4171C105.169 92.3522 105.093 92.2687 105.036 92.172V92.136C104.979 92.0387 104.944 91.9304 104.933 91.8184C104.921 91.7064 104.934 91.5933 104.97 91.4865C105.006 91.3798 105.064 91.2819 105.14 91.1994C105.217 91.1169 105.31 91.0516 105.414 91.008L107.052 90.324L105.414 89.634C105.31 89.5904 105.217 89.5252 105.14 89.4427C105.064 89.3602 105.006 89.2623 104.97 89.1555C104.934 89.0488 104.921 88.9356 104.933 88.8237C104.944 88.7117 104.979 88.6034 105.036 88.506V88.476C105.088 88.3755 105.162 88.2875 105.252 88.2179C105.341 88.1483 105.445 88.0987 105.555 88.0725C105.665 88.0464 105.78 88.0442 105.891 88.0662C106.003 88.0882 106.108 88.1338 106.2 88.2L107.628 89.286L107.394 87.54C107.378 87.4281 107.387 87.3142 107.42 87.206C107.452 87.0978 107.508 86.9979 107.582 86.913C107.657 86.8282 107.749 86.7604 107.852 86.7143C107.955 86.6682 108.067 86.645 108.18 86.646C108.292 86.6458 108.404 86.6697 108.506 86.7162C108.608 86.7626 108.7 86.8305 108.774 86.9153C108.848 87 108.902 87.0997 108.935 87.2074C108.967 87.3152 108.975 87.4286 108.96 87.54L108.726 89.286L110.154 88.2C110.243 88.1322 110.346 88.0841 110.456 88.059C110.565 88.0339 110.679 88.0324 110.789 88.0545C110.899 88.0767 111.003 88.122 111.094 88.1874C111.185 88.2528 111.262 88.3369 111.318 88.434V88.464C111.374 88.5614 111.41 88.6696 111.421 88.7816C111.432 88.8936 111.42 89.0068 111.384 89.1135C111.348 89.2203 111.29 89.3182 111.214 89.4007C111.137 89.4832 111.044 89.5484 110.94 89.592L109.302 90.282L110.94 90.966C111.044 91.0096 111.137 91.0749 111.214 91.1574C111.29 91.2399 111.348 91.3378 111.384 91.4445C111.42 91.5513 111.432 91.6644 111.421 91.7764C111.41 91.8884 111.374 91.9967 111.318 92.094V92.13C111.264 92.2265 111.191 92.3108 111.104 92.3774C111.016 92.444 110.915 92.4916 110.808 92.517C110.7 92.5424 110.589 92.5452 110.48 92.525C110.372 92.5049 110.269 92.4623 110.178 92.4Z" fill="#263238"/>
<path d="M122.904 92.4L121.476 91.314L121.71 93.06C121.724 93.172 121.715 93.2858 121.682 93.3939C121.649 93.502 121.594 93.6019 121.519 93.6869C121.445 93.772 121.354 93.8403 121.251 93.8874C121.148 93.9345 121.037 93.9592 120.924 93.96C120.811 93.9593 120.7 93.9346 120.597 93.8875C120.495 93.8404 120.404 93.7719 120.33 93.6867C120.256 93.6015 120.201 93.5015 120.169 93.3934C120.137 93.2854 120.129 93.1717 120.144 93.06L120.372 91.314L118.95 92.4C118.861 92.4681 118.758 92.5165 118.649 92.5421C118.54 92.5676 118.427 92.5696 118.317 92.5481C118.207 92.5265 118.102 92.4819 118.011 92.417C117.919 92.3522 117.843 92.2687 117.786 92.172V92.136C117.729 92.0386 117.694 91.9304 117.683 91.8184C117.671 91.7064 117.684 91.5932 117.72 91.4865C117.756 91.3798 117.814 91.2819 117.89 91.1994C117.967 91.1168 118.06 91.0516 118.164 91.008L119.796 90.324L118.164 89.634C118.06 89.5904 117.967 89.5251 117.89 89.4426C117.814 89.3601 117.756 89.2622 117.72 89.1555C117.684 89.0487 117.671 88.9356 117.683 88.8236C117.694 88.7116 117.729 88.6033 117.786 88.506V88.476C117.842 88.3788 117.918 88.2948 118.01 88.2293C118.101 88.1639 118.205 88.1186 118.315 88.0965C118.425 88.0744 118.539 88.0759 118.648 88.101C118.758 88.1261 118.86 88.1741 118.95 88.242L120.372 89.328L120.144 87.582C120.128 87.4706 120.137 87.3572 120.169 87.2494C120.201 87.1416 120.256 87.042 120.33 86.9573C120.404 86.8725 120.495 86.8046 120.598 86.7582C120.7 86.7117 120.811 86.6878 120.924 86.688C121.037 86.6879 121.148 86.7119 121.251 86.7583C121.353 86.8047 121.445 86.8724 121.519 86.957C121.594 87.0417 121.649 87.1412 121.682 87.249C121.715 87.3567 121.724 87.4703 121.71 87.582L121.476 89.328L122.904 88.242C122.993 88.1742 123.095 88.1262 123.204 88.1012C123.313 88.0762 123.426 88.0747 123.536 88.0968C123.645 88.119 123.749 88.1642 123.84 88.2296C123.931 88.295 124.006 88.379 124.062 88.476V88.506C124.118 88.6033 124.154 88.7116 124.165 88.8236C124.176 88.9356 124.164 89.0487 124.128 89.1555C124.092 89.2622 124.034 89.3601 123.958 89.4426C123.881 89.5251 123.788 89.5904 123.684 89.634L122.046 90.324L123.684 91.008C123.788 91.0516 123.881 91.1168 123.958 91.1994C124.034 91.2819 124.092 91.3798 124.128 91.4865C124.164 91.5932 124.176 91.7064 124.165 91.8184C124.154 91.9304 124.118 92.0386 124.062 92.136V92.172C124.006 92.2685 123.93 92.3519 123.839 92.4167C123.748 92.4815 123.644 92.5262 123.534 92.5478C123.425 92.5693 123.312 92.5673 123.203 92.5418C123.095 92.5164 122.992 92.468 122.904 92.4Z" fill="#263238"/>
<path d="M135.599 92.4L134.177 91.314L134.411 93.06C134.426 93.172 134.416 93.2858 134.384 93.3939C134.351 93.502 134.295 93.6019 134.221 93.6869C134.147 93.772 134.055 93.8403 133.953 93.8874C133.85 93.9345 133.738 93.9592 133.625 93.96C133.513 93.9592 133.401 93.9345 133.298 93.8874C133.196 93.8403 133.104 93.772 133.03 93.6869C132.956 93.6019 132.9 93.502 132.867 93.3939C132.835 93.2858 132.825 93.172 132.839 93.06L133.073 91.314L131.675 92.4C131.586 92.4681 131.484 92.5165 131.375 92.5421C131.266 92.5676 131.152 92.5696 131.042 92.5481C130.932 92.5265 130.828 92.4819 130.736 92.417C130.645 92.3522 130.568 92.2687 130.511 92.172V92.136C130.455 92.0386 130.42 91.9304 130.408 91.8184C130.397 91.7064 130.41 91.5932 130.445 91.4865C130.481 91.3798 130.539 91.2819 130.616 91.1993C130.692 91.1168 130.786 91.0516 130.889 91.008L132.527 90.324L130.889 89.634C130.786 89.5904 130.692 89.5251 130.616 89.4426C130.539 89.3601 130.481 89.2622 130.445 89.1555C130.41 89.0487 130.397 88.9356 130.408 88.8236C130.42 88.7116 130.455 88.6033 130.511 88.506V88.476C130.568 88.3788 130.644 88.2948 130.735 88.2293C130.827 88.1639 130.931 88.1186 131.041 88.0965C131.151 88.0744 131.264 88.0759 131.374 88.101C131.483 88.1261 131.586 88.1741 131.675 88.242L133.097 89.328L132.863 87.582C132.849 87.4703 132.858 87.3567 132.891 87.249C132.924 87.1412 132.98 87.0417 133.054 86.957C133.128 86.8724 133.22 86.8047 133.323 86.7583C133.425 86.7119 133.537 86.6879 133.649 86.688C133.762 86.6879 133.874 86.7119 133.976 86.7583C134.079 86.8047 134.17 86.8724 134.245 86.957C134.319 87.0417 134.375 87.1412 134.408 87.249C134.44 87.3567 134.45 87.4703 134.435 87.582L134.201 89.328L135.599 88.2C135.689 88.1321 135.792 88.0841 135.901 88.059C136.011 88.0339 136.124 88.0324 136.234 88.0545C136.344 88.0766 136.448 88.1219 136.54 88.1873C136.631 88.2528 136.707 88.3368 136.763 88.434V88.464C136.821 88.5607 136.857 88.6687 136.87 88.7807C136.882 88.8926 136.87 89.0059 136.835 89.1129C136.8 89.2199 136.742 89.318 136.665 89.4007C136.589 89.4833 136.495 89.5486 136.391 89.592L134.753 90.282L136.385 90.966C136.489 91.0096 136.583 91.0748 136.659 91.1574C136.736 91.2399 136.794 91.3377 136.83 91.4445C136.865 91.5512 136.878 91.6644 136.867 91.7764C136.855 91.8884 136.82 91.9967 136.763 92.094V92.13C136.71 92.23 136.636 92.3175 136.547 92.3865C136.457 92.4555 136.353 92.5044 136.243 92.53C136.133 92.5556 136.018 92.5573 135.907 92.5348C135.796 92.5124 135.691 92.4664 135.599 92.4Z" fill="#263238"/>
<path d="M148.35 92.4L146.922 91.314L147.156 93.06C147.172 93.1717 147.163 93.2854 147.131 93.3935C147.099 93.5016 147.044 93.6015 146.97 93.6867C146.896 93.7719 146.805 93.8404 146.703 93.8875C146.6 93.9347 146.489 93.9594 146.376 93.96C146.263 93.9602 146.151 93.9361 146.048 93.8894C145.945 93.8426 145.853 93.7743 145.778 93.689C145.704 93.6037 145.648 93.5034 145.616 93.3949C145.584 93.2864 145.575 93.1722 145.59 93.06L145.824 91.314L144.396 92.4C144.307 92.4681 144.205 92.5166 144.095 92.5421C143.986 92.5676 143.873 92.5697 143.763 92.5481C143.653 92.5266 143.549 92.4819 143.457 92.4171C143.366 92.3522 143.289 92.2687 143.232 92.172V92.136C143.176 92.0387 143.14 91.9304 143.129 91.8184C143.118 91.7064 143.13 91.5933 143.166 91.4865C143.202 91.3798 143.26 91.2819 143.337 91.1994C143.413 91.1169 143.506 91.0516 143.61 91.008L145.248 90.324L143.61 89.634C143.506 89.5904 143.413 89.5252 143.337 89.4427C143.26 89.3602 143.202 89.2623 143.166 89.1555C143.13 89.0488 143.118 88.9356 143.129 88.8236C143.14 88.7116 143.176 88.6034 143.232 88.506V88.476C143.288 88.3789 143.365 88.2948 143.456 88.2294C143.547 88.1639 143.651 88.1187 143.761 88.0965C143.871 88.0744 143.985 88.0759 144.094 88.101C144.204 88.1261 144.307 88.1742 144.396 88.242L145.824 89.328L145.59 87.582C145.575 87.4701 145.583 87.3562 145.616 87.248C145.648 87.1398 145.704 87.0399 145.778 86.955C145.853 86.8702 145.945 86.8024 146.048 86.7563C146.151 86.7102 146.263 86.687 146.376 86.688C146.489 86.6878 146.6 86.7117 146.702 86.7582C146.805 86.8046 146.896 86.8725 146.97 86.9573C147.044 87.042 147.099 87.1417 147.131 87.2494C147.163 87.3572 147.172 87.4706 147.156 87.582L146.922 89.328L148.35 88.242C148.44 88.1742 148.542 88.1261 148.652 88.101C148.761 88.0759 148.875 88.0744 148.985 88.0965C149.095 88.1187 149.199 88.1639 149.29 88.2294C149.382 88.2948 149.458 88.3789 149.514 88.476V88.506C149.571 88.6034 149.606 88.7116 149.617 88.8236C149.629 88.9356 149.616 89.0488 149.58 89.1555C149.545 89.2623 149.486 89.3602 149.41 89.4427C149.333 89.5252 149.24 89.5904 149.136 89.634L147.504 90.324L149.136 91.008C149.24 91.0516 149.333 91.1169 149.41 91.1994C149.486 91.2819 149.545 91.3798 149.58 91.4865C149.616 91.5933 149.629 91.7064 149.617 91.8184C149.606 91.9304 149.571 92.0387 149.514 92.136V92.172C149.457 92.2687 149.381 92.3522 149.289 92.4171C149.198 92.4819 149.094 92.5266 148.984 92.5481C148.873 92.5697 148.76 92.5676 148.651 92.5421C148.542 92.5166 148.439 92.4681 148.35 92.4Z" fill="#263238"/>
<path d="M161.076 92.4L159.648 91.314L159.882 93.06C159.896 93.172 159.887 93.2858 159.854 93.3939C159.821 93.502 159.766 93.6019 159.691 93.6869C159.617 93.772 159.526 93.8403 159.423 93.8874C159.32 93.9345 159.209 93.9592 159.096 93.96C158.983 93.9593 158.872 93.9346 158.769 93.8875C158.667 93.8404 158.576 93.7719 158.502 93.6867C158.428 93.6015 158.373 93.5015 158.341 93.3934C158.309 93.2854 158.3 93.1717 158.316 93.06L158.544 91.314L157.122 92.4C157.033 92.4681 156.93 92.5165 156.821 92.5421C156.712 92.5676 156.598 92.5696 156.488 92.5481C156.378 92.5265 156.274 92.4819 156.183 92.417C156.091 92.3522 156.015 92.2687 155.958 92.172V92.136C155.901 92.0386 155.866 91.9304 155.855 91.8184C155.843 91.7064 155.856 91.5932 155.892 91.4865C155.927 91.3798 155.986 91.2819 156.062 91.1994C156.139 91.1168 156.232 91.0516 156.336 91.008L157.968 90.324L156.336 89.634C156.232 89.5904 156.139 89.5251 156.062 89.4426C155.986 89.3601 155.927 89.2622 155.892 89.1555C155.856 89.0487 155.843 88.9356 155.855 88.8236C155.866 88.7116 155.901 88.6033 155.958 88.506V88.476C156.014 88.3788 156.09 88.2948 156.182 88.2293C156.273 88.1639 156.377 88.1186 156.487 88.0965C156.597 88.0744 156.711 88.0759 156.82 88.101C156.929 88.1261 157.032 88.1741 157.122 88.242L158.544 89.328L158.316 87.582C158.3 87.4706 158.309 87.3572 158.341 87.2494C158.373 87.1416 158.428 87.042 158.502 86.9573C158.576 86.8725 158.667 86.8046 158.77 86.7582C158.872 86.7117 158.983 86.6878 159.096 86.688C159.208 86.6879 159.32 86.7119 159.423 86.7583C159.525 86.8047 159.617 86.8724 159.691 86.957C159.766 87.0417 159.821 87.1412 159.854 87.249C159.887 87.3567 159.896 87.4703 159.882 87.582L159.648 89.328L161.076 88.242C161.165 88.1742 161.267 88.1262 161.376 88.1012C161.485 88.0762 161.598 88.0747 161.708 88.0968C161.817 88.119 161.921 88.1642 162.012 88.2296C162.102 88.295 162.178 88.379 162.234 88.476V88.506C162.29 88.6033 162.325 88.7116 162.337 88.8236C162.348 88.9356 162.336 89.0487 162.3 89.1555C162.264 89.2622 162.206 89.3601 162.129 89.4426C162.053 89.5251 161.96 89.5904 161.856 89.634L160.218 90.324L161.856 91.008C161.96 91.0516 162.053 91.1168 162.129 91.1994C162.206 91.2819 162.264 91.3798 162.3 91.4865C162.336 91.5932 162.348 91.7064 162.337 91.8184C162.325 91.9304 162.29 92.0386 162.234 92.136V92.172C162.178 92.2685 162.101 92.3519 162.011 92.4167C161.92 92.4815 161.816 92.5262 161.706 92.5478C161.597 92.5693 161.484 92.5673 161.375 92.5418C161.266 92.5164 161.164 92.468 161.076 92.4Z" fill="#263238"/>
<path d="M182.345 90.3001C182.345 90.3001 179.753 93.5341 176.555 93.5341C173.357 93.5341 170.771 90.3001 170.771 90.3001C170.771 90.3001 173.357 87.0601 176.555 87.0601C179.753 87.0601 182.345 90.3001 182.345 90.3001Z" fill="white" stroke="#263238" stroke-linecap="round" stroke-linejoin="round"/>
<path d="M178.547 90.3001C178.547 90.6941 178.431 91.0792 178.212 91.4068C177.993 91.7344 177.682 91.9897 177.318 92.1405C176.954 92.2912 176.553 92.3307 176.167 92.2538C175.78 92.177 175.426 91.9873 175.147 91.7087C174.868 91.4301 174.679 91.0751 174.602 90.6887C174.525 90.3023 174.564 89.9018 174.715 89.5378C174.866 89.1738 175.121 88.8627 175.449 88.6438C175.776 88.4249 176.162 88.3081 176.555 88.3081C177.084 88.3081 177.59 88.518 177.964 88.8916C178.338 89.2651 178.547 89.7718 178.547 90.3001Z" fill="#999999" stroke="#263238" stroke-linecap="round" stroke-linejoin="round"/>
<path d="M116.688 110.172H111.426C110.11 110.172 109.044 111.239 109.044 112.554V119.334C109.044 120.65 110.11 121.716 111.426 121.716H116.688C118.003 121.716 119.07 120.65 119.07 119.334V112.554C119.07 111.239 118.003 110.172 116.688 110.172Z" fill="#407BFF" stroke="#263238" stroke-linecap="round" stroke-linejoin="round"/>
<path d="M127.872 110.172H122.61C121.294 110.172 120.228 111.239 120.228 112.554V119.334C120.228 120.65 121.294 121.716 122.61 121.716H127.872C129.187 121.716 130.254 120.65 130.254 119.334V112.554C130.254 111.239 129.187 110.172 127.872 110.172Z" fill="#407BFF" stroke="#263238" stroke-linecap="round" stroke-linejoin="round"/>
<path d="M139.049 110.172H133.787C132.472 110.172 131.405 111.239 131.405 112.554V119.334C131.405 120.65 132.472 121.716 133.787 121.716H139.049C140.365 121.716 141.431 120.65 141.431 119.334V112.554C141.431 111.239 140.365 110.172 139.049 110.172Z" fill="#407BFF" stroke="#263238" stroke-linecap="round" stroke-linejoin="round"/>
<path d="M150.228 110.172H144.966C143.65 110.172 142.584 111.239 142.584 112.554V119.334C142.584 120.65 143.65 121.716 144.966 121.716H150.228C151.544 121.716 152.61 120.65 152.61 119.334V112.554C152.61 111.239 151.544 110.172 150.228 110.172Z" fill="#407BFF" stroke="#263238" stroke-linecap="round" stroke-linejoin="round"/>
<path d="M161.412 110.172H156.15C154.834 110.172 153.768 111.239 153.768 112.554V119.334C153.768 120.65 154.834 121.716 156.15 121.716H161.412C162.727 121.716 163.794 120.65 163.794 119.334V112.554C163.794 111.239 162.727 110.172 161.412 110.172Z" fill="#407BFF" stroke="#263238" stroke-linecap="round" stroke-linejoin="round"/>
<path d="M172.589 110.172H167.327C166.012 110.172 164.945 111.239 164.945 112.554V119.334C164.945 120.65 166.012 121.716 167.327 121.716H172.589C173.905 121.716 174.971 120.65 174.971 119.334V112.554C174.971 111.239 173.905 110.172 172.589 110.172Z" fill="#407BFF" stroke="#263238" stroke-linecap="round" stroke-linejoin="round"/>
<path d="M122.28 123.552H117.018C115.702 123.552 114.636 124.618 114.636 125.934V132.714C114.636 134.03 115.702 135.096 117.018 135.096H122.28C123.595 135.096 124.662 134.03 124.662 132.714V125.934C124.662 124.618 123.595 123.552 122.28 123.552Z" fill="#407BFF" stroke="#263238" stroke-linecap="round" stroke-linejoin="round"/>
<path d="M133.457 123.552H128.195C126.88 123.552 125.813 124.618 125.813 125.934V132.714C125.813 134.03 126.88 135.096 128.195 135.096H133.457C134.773 135.096 135.839 134.03 135.839 132.714V125.934C135.839 124.618 134.773 123.552 133.457 123.552Z" fill="#407BFF" stroke="#263238" stroke-linecap="round" stroke-linejoin="round"/>
<path d="M144.642 123.552H139.38C138.065 123.552 136.998 124.618 136.998 125.934V132.714C136.998 134.03 138.065 135.096 139.38 135.096H144.642C145.958 135.096 147.024 134.03 147.024 132.714V125.934C147.024 124.618 145.958 123.552 144.642 123.552Z" fill="#407BFF" stroke="#263238" stroke-linecap="round" stroke-linejoin="round"/>
<path d="M155.82 123.552H150.558C149.242 123.552 148.176 124.618 148.176 125.934V132.714C148.176 134.03 149.242 135.096 150.558 135.096H155.82C157.135 135.096 158.202 134.03 158.202 132.714V125.934C158.202 124.618 157.135 123.552 155.82 123.552Z" fill="#407BFF" stroke="#263238" stroke-linecap="round" stroke-linejoin="round"/>
<path d="M166.998 123.552H161.736C160.42 123.552 159.354 124.618 159.354 125.934V132.714C159.354 134.03 160.42 135.096 161.736 135.096H166.998C168.313 135.096 169.38 134.03 169.38 132.714V125.934C169.38 124.618 168.313 123.552 166.998 123.552Z" fill="#407BFF" stroke="#263238" stroke-linecap="round" stroke-linejoin="round"/>
<path d="M116.688 136.932H111.426C110.11 136.932 109.044 137.999 109.044 139.314V146.094C109.044 147.41 110.11 148.476 111.426 148.476H116.688C118.003 148.476 119.07 147.41 119.07 146.094V139.314C119.07 137.999 118.003 136.932 116.688 136.932Z" fill="#407BFF" stroke="#263238" stroke-linecap="round" stroke-linejoin="round"/>
<path d="M127.872 136.932H122.61C121.294 136.932 120.228 137.999 120.228 139.314V146.094C120.228 147.41 121.294 148.476 122.61 148.476H127.872C129.187 148.476 130.254 147.41 130.254 146.094V139.314C130.254 137.999 129.187 136.932 127.872 136.932Z" fill="#407BFF" stroke="#263238" stroke-linecap="round" stroke-linejoin="round"/>
<path d="M139.049 136.932H133.787C132.472 136.932 131.405 137.999 131.405 139.314V146.094C131.405 147.41 132.472 148.476 133.787 148.476H139.049C140.365 148.476 141.431 147.41 141.431 146.094V139.314C141.431 137.999 140.365 136.932 139.049 136.932Z" fill="#407BFF" stroke="#263238" stroke-linecap="round" stroke-linejoin="round"/>
<path d="M150.228 136.932H144.966C143.65 136.932 142.584 137.999 142.584 139.314V146.094C142.584 147.41 143.65 148.476 144.966 148.476H150.228C151.544 148.476 152.61 147.41 152.61 146.094V139.314C152.61 137.999 151.544 136.932 150.228 136.932Z" fill="#407BFF" stroke="#263238" stroke-linecap="round" stroke-linejoin="round"/>
<path d="M161.412 136.932H156.15C154.834 136.932 153.768 137.999 153.768 139.314V146.094C153.768 147.41 154.834 148.476 156.15 148.476H161.412C162.727 148.476 163.794 147.41 163.794 146.094V139.314C163.794 137.999 162.727 136.932 161.412 136.932Z" fill="#407BFF" stroke="#263238" stroke-linecap="round" stroke-linejoin="round"/>
<path d="M172.589 136.932H167.327C166.012 136.932 164.945 137.999 164.945 139.314V146.094C164.945 147.41 166.012 148.476 167.327 148.476H172.589C173.905 148.476 174.971 147.41 174.971 146.094V139.314C174.971 137.999 173.905 136.932 172.589 136.932Z" fill="#407BFF" stroke="#263238" stroke-linecap="round" stroke-linejoin="round"/>
<path d="M122.28 150.312H117.018C115.702 150.312 114.636 151.378 114.636 152.694V159.474C114.636 160.79 115.702 161.856 117.018 161.856H122.28C123.595 161.856 124.662 160.79 124.662 159.474V152.694C124.662 151.378 123.595 150.312 122.28 150.312Z" fill="#407BFF" stroke="#263238" stroke-linecap="round" stroke-linejoin="round"/>
<path d="M133.457 150.312H128.195C126.88 150.312 125.813 151.378 125.813 152.694V159.474C125.813 160.79 126.88 161.856 128.195 161.856H133.457C134.773 161.856 135.839 160.79 135.839 159.474V152.694C135.839 151.378 134.773 150.312 133.457 150.312Z" fill="#407BFF" stroke="#263238" stroke-linecap="round" stroke-linejoin="round"/>
<path d="M144.642 150.312H139.38C138.065 150.312 136.998 151.378 136.998 152.694V159.474C136.998 160.79 138.065 161.856 139.38 161.856H144.642C145.958 161.856 147.024 160.79 147.024 159.474V152.694C147.024 151.378 145.958 150.312 144.642 150.312Z" fill="#407BFF" stroke="#263238" stroke-linecap="round" stroke-linejoin="round"/>
<path d="M155.82 150.312H150.558C149.242 150.312 148.176 151.378 148.176 152.694V159.474C148.176 160.79 149.242 161.856 150.558 161.856H155.82C157.135 161.856 158.202 160.79 158.202 159.474V152.694C158.202 151.378 157.135 150.312 155.82 150.312Z" fill="#407BFF" stroke="#263238" stroke-linecap="round" stroke-linejoin="round"/>
<path d="M166.998 150.312H161.736C160.42 150.312 159.354 151.378 159.354 152.694V159.474C159.354 160.79 160.42 161.856 161.736 161.856H166.998C168.313 161.856 169.38 160.79 169.38 159.474V152.694C169.38 151.378 168.313 150.312 166.998 150.312Z" fill="#407BFF" stroke="#263238" stroke-linecap="round" stroke-linejoin="round"/>
<path d="M156.622 64.3789C160.952 56.2252 157.852 46.1053 149.698 41.7754C141.545 37.4456 131.425 40.5453 127.095 48.699C122.765 56.8526 125.865 66.9725 134.018 71.3024C142.172 75.6322 152.292 72.5325 156.622 64.3789Z" fill="white" stroke="#263238" stroke-linecap="round" stroke-linejoin="round"/>
<path d="M141.858 73.2482C145.511 73.2559 149.065 72.0579 151.968 69.8402C148.05 68.3858 143.907 67.6303 139.728 67.6082C136.735 67.6312 133.767 68.169 130.956 69.1982C133.986 71.8138 137.856 73.2514 141.858 73.2482Z" fill="#407BFF" stroke="#263238" stroke-linecap="round" stroke-linejoin="round"/>
<path d="M137.358 63.99C137.358 63.99 137.214 58.542 135.684 54.558C134.154 50.574 133.284 44.688 139.122 43.872C144.96 43.056 147.27 44.022 150.612 43.758C157.032 43.26 149.958 50.634 149.958 50.634L141.36 54C141.36 54 138.378 64.254 137.358 63.99Z" fill="#263238" stroke="#263238" stroke-linecap="round" stroke-linejoin="round"/>
<path d="M136.967 65.5741L138.485 59.4001L142.685 60.6721L143.951 65.7001C144.07 66.1813 144.292 66.6305 144.603 67.0162C144.914 67.4019 145.306 67.7146 145.751 67.9321C146.385 68.2263 146.988 68.582 147.551 68.9941C147.551 68.9941 142.547 75.4081 132.941 68.9941C133.577 68.5313 134.266 68.1466 134.993 67.8481C135.479 67.6521 135.911 67.3437 136.254 66.9485C136.597 66.5532 136.841 66.0822 136.967 65.5741Z" fill="white"/>
<mask id="mask3_6171_120191" style="mask-type:luminance" maskUnits="userSpaceOnUse" x="132" y="59" width="16" height="13">
<path d="M136.967 65.5741L138.485 59.4001L142.685 60.6721L143.951 65.7001C144.07 66.1813 144.292 66.6305 144.603 67.0162C144.914 67.4019 145.306 67.7146 145.751 67.9321C146.385 68.2263 146.988 68.582 147.551 68.9941C147.551 68.9941 142.547 75.4081 132.941 68.9941C133.577 68.5313 134.266 68.1466 134.993 67.8481C135.479 67.6521 135.911 67.3437 136.254 66.9485C136.597 66.5532 136.841 66.0822 136.967 65.5741Z" fill="white"/>
</mask>
<g mask="url(#mask3_6171_120191)">
<path d="M150.089 50.826L150.641 54.504C150.697 54.8923 150.664 55.2881 150.545 55.662L150.227 56.664L150.413 59.064C150.422 59.1879 150.422 59.3122 150.413 59.436C150.329 60.636 149.735 66.528 146.213 66.798C143.075 67.038 139.943 63.798 138.833 62.262C138.556 61.8791 138.352 61.4477 138.233 60.99L137.759 59.124C137.312 59.121 136.878 58.9766 136.518 58.7114C136.158 58.4463 135.891 58.0741 135.755 57.648C135.281 56.142 134.495 55.17 136.019 54.42C137.543 53.67 138.071 55.8 138.071 55.8C138.071 55.8 138.467 53.322 138.887 52.614C139.307 51.906 140.603 51.234 140.999 50.628C141.223 50.147 141.404 49.647 141.539 49.134C141.539 49.134 146.177 50.028 149.699 49.314L150.089 50.826Z" fill="#263238" stroke="#263238" stroke-linecap="round" stroke-linejoin="round"/>
</g>
<path d="M136.967 65.5741L138.485 59.4001L142.685 60.6721L143.951 65.7001C144.07 66.1813 144.292 66.6305 144.603 67.0162C144.914 67.4019 145.306 67.7146 145.751 67.9321C146.385 68.2263 146.988 68.582 147.551 68.9941C147.551 68.9941 142.547 75.4081 132.941 68.9941C133.577 68.5313 134.266 68.1466 134.993 67.8481C135.479 67.6521 135.911 67.3437 136.254 66.9485C136.597 66.5532 136.841 66.0822 136.967 65.5741Z" stroke="#263238" stroke-linecap="round" stroke-linejoin="round"/>
<path d="M150.09 50.1721L150.642 53.8501C150.697 54.2384 150.664 54.6342 150.546 55.0081L150.228 56.0101L150.414 58.4101C150.423 58.536 150.423 58.6623 150.414 58.7881C150.33 59.9881 149.736 65.8801 146.214 66.1501C143.076 66.3901 139.944 63.1501 138.834 61.6141C138.557 61.2305 138.354 60.7993 138.234 60.3421L137.76 58.4761C137.311 58.4756 136.873 58.3324 136.511 58.0671C136.148 57.8017 135.88 57.4281 135.744 57.0001C135.27 55.4941 134.484 54.5221 136.008 53.7721C137.532 53.0221 138.072 55.1401 138.072 55.1401C138.072 55.1401 138.468 52.6621 138.888 51.9541C139.308 51.2461 140.604 50.5741 141 49.9681C141.224 49.4871 141.404 48.9871 141.54 48.4741C141.54 48.4741 146.178 49.3681 149.7 48.6541L150.09 50.1721Z" fill="white" stroke="#263238" stroke-linecap="round" stroke-linejoin="round"/>
<path d="M147.6 56.3101L148.752 59.0941C148.794 59.1847 148.813 59.2843 148.807 59.384C148.8 59.4837 148.769 59.5802 148.716 59.6648C148.663 59.7494 148.59 59.8195 148.503 59.8686C148.416 59.9177 148.318 59.9443 148.218 59.9461L146.784 60.0421" stroke="#263238" stroke-width="0.75" stroke-linecap="round" stroke-linejoin="round"/>
<path d="M144.029 61.0801C144.144 61.3172 144.31 61.5261 144.515 61.692C144.72 61.8579 144.959 61.9769 145.215 62.0404C145.47 62.1039 145.737 62.1105 145.996 62.0596C146.254 62.0088 146.499 61.9017 146.711 61.7461" stroke="#263238" stroke-width="0.75" stroke-linecap="round" stroke-linejoin="round"/>
<path d="M144 45.7801C137.784 45.0721 136.638 47.5261 136.638 47.5261" stroke="#7F7F7F" stroke-width="0.75" stroke-linecap="round" stroke-linejoin="round"/>
<path d="M150.822 45.1021C149.038 45.5482 147.207 45.7838 145.368 45.804" stroke="#7F7F7F" stroke-width="0.75" stroke-linecap="round" stroke-linejoin="round"/>
<path d="M145.2 47.568C146.97 47.568 150.546 47.238 151.974 45.606" stroke="#7F7F7F" stroke-width="0.75" stroke-linecap="round" stroke-linejoin="round"/>
<path d="M142.584 47.2681C143.043 47.373 143.508 47.4491 143.976 47.4961" stroke="#7F7F7F" stroke-width="0.75" stroke-linecap="round" stroke-linejoin="round"/>
<path d="M145.104 55.9079C145.104 56.3879 144.912 56.7719 144.672 56.7719C144.432 56.7719 144.24 56.3879 144.24 55.9079C144.24 55.4279 144.438 55.0439 144.672 55.0439C144.906 55.0439 145.104 55.4339 145.104 55.9079Z" fill="#263238"/>
<path d="M149.172 55.8C149.172 56.214 149.004 56.55 148.8 56.55C148.596 56.55 148.422 56.214 148.422 55.8C148.422 55.386 148.59 55.05 148.8 55.05C149.01 55.05 149.172 55.38 149.172 55.8Z" fill="#263238"/>
<path d="M143.262 54.6361C143.262 54.6361 143.778 53.0941 144.672 53.1361C144.948 53.1622 145.212 53.2587 145.44 53.4163C145.668 53.5738 145.852 53.7872 145.974 54.0361" stroke="#263238" stroke-width="0.75" stroke-linecap="round" stroke-linejoin="round"/>
<path d="M149.454 54C149.286 53.586 149.028 53.118 148.686 53.142C148.086 53.178 147.792 54.042 147.792 54.042" stroke="#263238" stroke-width="0.75" stroke-linecap="round" stroke-linejoin="round"/>
<path d="M56.4535 126.852C57.6535 123.936 54.7196 115.116 53.4056 111.498C53.3292 111.289 53.2026 111.101 53.037 110.952C52.8714 110.803 52.6717 110.697 52.4556 110.643C52.2394 110.59 52.0133 110.59 51.7971 110.643C51.5809 110.697 51.3812 110.803 51.2155 110.952C50.0155 112.014 48.5815 114.078 48.3415 117.906C48.3415 117.906 39.1855 134.028 39.1855 141.384C39.1855 148.278 52.8175 162.636 52.8175 162.636C54.3546 162.159 55.6537 161.117 56.4535 159.72C56.4535 159.72 51.3596 147.12 47.4056 141.72C47.3995 141.726 55.1035 130.08 56.4535 126.852Z" fill="#263238"/>
<mask id="mask4_6171_120191" style="mask-type:luminance" maskUnits="userSpaceOnUse" x="39" y="110" width="18" height="53">
<path d="M56.4535 126.852C57.6535 123.936 54.7196 115.116 53.4056 111.498C53.3292 111.289 53.2026 111.101 53.037 110.952C52.8714 110.803 52.6717 110.697 52.4556 110.643C52.2394 110.59 52.0133 110.59 51.7971 110.643C51.5809 110.697 51.3812 110.803 51.2155 110.952C50.0155 112.014 48.5815 114.078 48.3415 117.906C48.3415 117.906 39.1855 134.028 39.1855 141.384C39.1855 148.278 52.8175 162.636 52.8175 162.636C54.3546 162.159 55.6537 161.117 56.4535 159.72C56.4535 159.72 51.3596 147.12 47.4056 141.72C47.3995 141.726 55.1035 130.08 56.4535 126.852Z" fill="white"/>
</mask>
<g mask="url(#mask4_6171_120191)">
<path opacity="0.2" d="M54.9232 131.568C54.9232 131.568 50.5612 122.274 48.9232 123.108C47.2852 123.942 43.0372 139.614 44.6632 142.11C46.2892 144.606 55.1572 162.228 57.3772 161.874C59.5972 161.52 54.9232 131.568 54.9232 131.568Z" fill="black"/>
</g>
<path d="M56.4535 126.852C57.6535 123.936 54.7196 115.116 53.4056 111.498C53.3292 111.289 53.2026 111.101 53.037 110.952C52.8714 110.803 52.6717 110.697 52.4556 110.643C52.2394 110.59 52.0133 110.59 51.7971 110.643C51.5809 110.697 51.3812 110.803 51.2155 110.952C50.0155 112.014 48.5815 114.078 48.3415 117.906C48.3415 117.906 39.1855 134.028 39.1855 141.384C39.1855 148.278 52.8175 162.636 52.8175 162.636C54.3546 162.159 55.6537 161.117 56.4535 159.72C56.4535 159.72 51.3596 147.12 47.4055 141.72C47.3995 141.726 55.1035 130.08 56.4535 126.852Z" stroke="#263238" stroke-linecap="round" stroke-linejoin="round"/>
<path d="M55.2956 158.58L57.3536 161.874C57.3536 161.874 63.7616 163.878 64.4276 165.996C65.0936 168.114 61.8116 171.066 59.8616 170.472C57.9116 169.878 54.7316 163.998 54.7316 163.998L52.1396 160.998L55.2956 158.58Z" fill="white" stroke="#263238" stroke-linecap="round" stroke-linejoin="round"/>
<path d="M51.2578 161.802L52.6438 163.398C54.5929 162.853 56.2591 161.582 57.2998 159.846L56.4598 157.848C56.4598 157.848 55.2778 160.62 51.2578 161.802Z" fill="#407BFF" stroke="#263238" stroke-linecap="round" stroke-linejoin="round"/>
<path d="M59.4717 250.11L57.6717 257.58C57.6118 257.83 57.6095 258.091 57.6648 258.342C57.7201 258.594 57.8316 258.829 57.991 259.031C58.1503 259.233 58.3534 259.397 58.5849 259.509C58.8164 259.621 59.0703 259.68 59.3277 259.68H69.8397C70.0886 259.68 70.3346 259.626 70.5604 259.521C70.7862 259.416 70.9864 259.263 71.147 259.073C71.3075 258.883 71.4246 258.659 71.49 258.419C71.5554 258.179 71.5676 257.927 71.5257 257.682C71.4443 257.12 71.2465 256.582 70.9447 256.102C70.643 255.621 70.2441 255.209 69.7737 254.892C67.3737 253.332 66.2337 248.448 66.2337 248.448L59.4717 250.11Z" fill="#263238" stroke="#263238" stroke-linecap="round" stroke-linejoin="round"/>
<path d="M85.3739 251.358C85.3739 251.358 83.6759 253.8 83.3999 258.156C83.391 258.353 83.4221 258.55 83.4914 258.734C83.5606 258.919 83.6666 259.087 83.8029 259.23C83.9392 259.372 84.103 259.486 84.2843 259.563C84.4656 259.64 84.6608 259.68 84.8579 259.68H103.5C103.864 259.682 104.219 259.571 104.517 259.361C104.815 259.152 105.04 258.855 105.161 258.512C105.282 258.169 105.294 257.797 105.194 257.447C105.094 257.097 104.888 256.787 104.604 256.56C103.811 255.97 102.87 255.609 101.886 255.516C97.3139 254.916 93.2639 252.816 92.5319 250.116L85.3739 251.358Z" fill="#263238" stroke="#263238" stroke-linecap="round" stroke-linejoin="round"/>
<path d="M56.4535 159.72C56.4535 159.72 54.3415 168.456 55.1755 187.32L55.7155 208.68C55.7155 208.68 52.6795 223.68 58.5055 250.836C58.5055 250.836 60.3055 254.856 67.5595 249.828L68.3995 208.398L75.9895 162.636L56.4535 159.72Z" fill="#999999"/>
<mask id="mask5_6171_120191" style="mask-type:luminance" maskUnits="userSpaceOnUse" x="54" y="159" width="22" height="94">
<path d="M56.4535 159.72C56.4535 159.72 54.3415 168.456 55.1755 187.32L55.7155 208.68C55.7155 208.68 52.6795 223.68 58.5055 250.836C58.5055 250.836 60.3055 254.856 67.5595 249.828L68.3995 208.398L75.9895 162.636L56.4535 159.72Z" fill="white"/>
</mask>
<g mask="url(#mask5_6171_120191)">
<path opacity="0.2" d="M71.5498 178.998C71.5498 178.998 68.4538 191.34 67.2058 198.552C65.9578 205.764 58.5358 205.212 57.6418 209.952C56.7478 214.692 65.4418 209.118 64.5958 226.152C63.7498 243.186 60.7078 252.498 65.4838 252.36C70.2598 252.222 70.3978 238.8 70.3978 238.8L73.3078 197.892V192.204L74.0038 181.404L71.5498 178.998Z" fill="black"/>
</g>
<path d="M56.4535 159.72C56.4535 159.72 54.3415 168.456 55.1755 187.32L55.7155 208.68C55.7155 208.68 52.6795 223.68 58.5055 250.836C58.5055 250.836 60.3055 254.856 67.5595 249.828L68.3995 208.398L75.9895 162.636L56.4535 159.72Z" stroke="#263238" stroke-linecap="round" stroke-linejoin="round"/>
<path d="M57.6411 213.312C57.3183 213.739 57.0199 214.184 56.7471 214.644" stroke="#263238" stroke-linecap="round" stroke-linejoin="round"/>
<path d="M58.0195 208.608C58.0195 208.608 64.9795 206.946 65.4535 208.608C65.8615 210.054 62.0995 208.356 58.3855 212.412" stroke="#263238" stroke-linecap="round" stroke-linejoin="round"/>
<path d="M70.086 181.998C75.486 190.716 83.088 207.87 83.088 207.87C83.088 207.87 81.942 209.856 83.088 213.186C83.088 213.186 80.088 224.772 84.438 252.474C84.438 252.474 88.182 254.874 93.594 250.674C93.594 250.674 96.294 209.034 95.256 203.418C94.218 197.802 84.456 160.71 84.456 160.71H63" fill="#999999"/>
<mask id="mask6_6171_120191" style="mask-type:luminance" maskUnits="userSpaceOnUse" x="63" y="160" width="33" height="94">
<path d="M70.086 181.998C75.486 190.716 83.088 207.87 83.088 207.87C83.088 207.87 81.942 209.856 83.088 213.186C83.088 213.186 80.088 224.772 84.438 252.474C84.438 252.474 88.182 254.874 93.594 250.674C93.594 250.674 96.294 209.034 95.256 203.418C94.218 197.802 84.456 160.71 84.456 160.71H63" fill="white"/>
</mask>
<g mask="url(#mask6_6171_120191)">
<path opacity="0.2" d="M68.8682 182.604C68.8682 182.604 72.1382 184.266 78.4082 182.604C84.6782 180.942 79.4822 188.004 81.5582 195.708C83.6342 203.412 89.4662 206.946 88.5302 210.27C87.5942 213.594 84.8222 214.434 84.2282 223.38C83.6342 232.326 91.4822 248.85 88.3922 252.234C85.3022 255.618 77.8142 247.614 77.8142 247.614L71.5502 205.2L68.8682 182.604Z" fill="black"/>
</g>
<path d="M70.086 181.998C75.486 190.716 83.088 207.87 83.088 207.87C83.088 207.87 81.942 209.856 83.088 213.186C83.088 213.186 80.088 224.772 84.438 252.474C84.438 252.474 88.182 254.874 93.594 250.674C93.594 250.674 96.294 209.034 95.256 203.418C94.218 197.802 84.456 160.71 84.456 160.71H63" stroke="#263238" stroke-linecap="round" stroke-linejoin="round"/>
<path d="M87.0595 209.34C89.5255 208.968 92.6755 208.74 92.5495 209.856C92.3455 211.728 87.9475 209.826 85.2715 212.976" stroke="#263238" stroke-linecap="round" stroke-linejoin="round"/>
<path d="M84.2275 209.856C84.2275 209.856 84.6595 209.76 85.3255 209.634" stroke="#263238" stroke-linecap="round" stroke-linejoin="round"/>
<path d="M101.399 101.832L101.789 97.872C101.789 97.872 101.009 93.75 101.399 92.352C101.789 90.954 105.209 82.092 106.295 82.482C107.381 82.872 104.663 87.69 104.741 89.082C104.741 89.082 106.187 89.16 106.541 90.09C106.541 90.09 107.915 90.324 107.993 91.566C108.329 91.78 108.6 92.0813 108.777 92.4374C108.955 92.7935 109.032 93.1912 109.001 93.588C108.851 94.908 106.205 98.484 106.205 98.484L106.361 103.614L101.399 101.832Z" fill="white" stroke="#263238" stroke-linecap="round" stroke-linejoin="round"/>
<path d="M78.3957 95.142C78.3957 95.142 76.8657 92.142 76.6437 91.014C76.4817 90.228 76.8057 88.614 76.6437 87.822C76.2717 85.992 73.7097 80.958 73.7097 80.958C73.6069 80.7416 73.4498 80.5555 73.2537 80.418L71.7537 82.266H67.6857L61.4697 90.474L64.5297 97.842L63.6357 98.904C64.1817 99.444 64.5297 99.756 64.5297 99.756L63.6357 105.102L72.3957 105.99L72.5997 102.6H75.2637C75.6234 102.6 75.9683 102.457 76.2226 102.203C76.4769 101.949 76.6197 101.604 76.6197 101.244V96.6L77.8197 96.252C77.9355 96.2251 78.0441 96.1735 78.1381 96.1006C78.232 96.0277 78.309 95.9353 78.3637 95.8298C78.4185 95.7243 78.4497 95.6082 78.4552 95.4894C78.4607 95.3707 78.4405 95.2521 78.3957 95.142Z" fill="white" stroke="#263238" stroke-linecap="round" stroke-linejoin="round"/>
<path d="M57.2099 92.472C60.7379 97.668 64.5299 99.756 64.5299 99.756L66.0239 96.042C66.0239 96.042 63.0239 95.724 63.4739 92.808C64.1759 88.506 67.6739 92.376 67.6739 92.376L68.4299 89.052C68.4299 89.052 70.2959 87.048 70.1639 86.346C70.0639 85.8361 69.9317 85.3331 69.7679 84.84C69.7679 84.84 76.5179 78.414 75.8039 74.832C75.8039 74.832 70.1819 75.972 63.4739 77.232C55.3079 78.708 53.2259 86.616 57.2099 92.472Z" fill="#263238" stroke="#263238" stroke-linecap="round" stroke-linejoin="round"/>
<path d="M75.2876 102.6C75.2876 102.6 70.5896 101.802 68.7956 99.5999C67.0016 97.3979 68.4296 99.7559 69.2696 101.106C71.0696 103.992 72.5996 102.6 75.2876 102.6Z" fill="#263238"/>
<path d="M72.3955 95.844C72.7195 96.2109 73.1284 96.4929 73.5865 96.6655C74.0446 96.8381 74.5379 96.8959 75.0235 96.834" stroke="#263238" stroke-width="0.75" stroke-linecap="round" stroke-linejoin="round"/>
<path d="M75.8153 90.1019C75.8153 90.5219 75.6593 90.8579 75.4613 90.8579C75.2633 90.8579 75.1133 90.5219 75.1133 90.1019C75.1133 89.6819 75.2693 89.3459 75.4613 89.3459C75.6533 89.3459 75.8153 89.6879 75.8153 90.1019Z" fill="#263238"/>
<path d="M75.7496 87.894C75.2637 87.7874 74.7558 87.8568 74.3163 88.0897C73.8767 88.3227 73.5342 88.7041 73.3496 89.166" stroke="#263238" stroke-width="0.75" stroke-linecap="round" stroke-linejoin="round"/>
<path d="M59.0576 107.436C59.0576 107.436 59.0576 103.332 66.1316 103.968C74.7296 104.748 78.1976 109.152 78.1976 109.152L59.0576 107.436Z" fill="#407BFF" stroke="#263238" stroke-linecap="round" stroke-linejoin="round"/>
<path d="M72.9296 106.698C78.2876 107.298 87.6296 108.588 87.0716 122.994C86.5136 137.4 84.4376 160.698 84.4376 160.698C84.4376 160.698 57.6416 172.146 54.5996 161.526C54.5996 161.526 55.9916 149.526 51.5516 130.848C47.1116 112.17 49.1216 104.1 72.9296 106.698Z" fill="#263238"/>
<mask id="mask7_6171_120191" style="mask-type:luminance" maskUnits="userSpaceOnUse" x="49" y="106" width="39" height="61">
<path d="M72.9296 106.698C78.2876 107.298 87.6296 108.588 87.0716 122.994C86.5136 137.4 84.4376 160.698 84.4376 160.698C84.4376 160.698 57.6416 172.146 54.5996 161.526C54.5996 161.526 55.9916 149.526 51.5516 130.848C47.1116 112.17 49.1216 104.1 72.9296 106.698Z" fill="white"/>
</mask>
<g mask="url(#mask7_6171_120191)">
<path opacity="0.2" d="M88.4274 147.102C88.4274 147.102 84.9294 147.942 74.2134 142.11C57.4134 132.948 55.5294 119.502 50.8134 121.71C46.0974 123.918 55.4754 167.28 55.4754 167.28L72.8754 168.372H89.0034L88.4274 147.102Z" fill="black"/>
</g>
<path d="M72.9296 106.698C78.2876 107.298 87.6296 108.588 87.0716 122.994C86.5136 137.4 84.4376 160.698 84.4376 160.698C84.4376 160.698 57.6416 172.146 54.5996 161.526C54.5996 161.526 55.9916 149.526 51.5516 130.848C47.1116 112.17 49.1216 104.1 72.9296 106.698Z" stroke="#263238" stroke-linecap="round" stroke-linejoin="round"/>
<path d="M41.9999 141.12C41.6999 141.192 41.3819 141.282 41.0459 141.39" stroke="#7F7F7F" stroke-width="0.75" stroke-linecap="round" stroke-linejoin="round"/>
<path d="M46.4271 141.39C46.4271 141.39 45.2991 140.586 42.8271 140.958" stroke="#7F7F7F" stroke-width="0.75" stroke-linecap="round" stroke-linejoin="round"/>
<path d="M75 106.962C75 106.962 84.282 107.022 88.44 109.518C88.44 109.518 95.79 108.27 98.706 109.518L101.34 99.672C101.34 99.672 104.808 98.004 106.47 100.5C106.47 100.5 107.718 115.5 105.642 116.73C103.566 117.96 87.078 121.722 87.078 121.722C87.078 121.722 76.548 118.554 75 106.962Z" fill="#263238"/>
<mask id="mask8_6171_120191" style="mask-type:luminance" maskUnits="userSpaceOnUse" x="75" y="99" width="32" height="23">
<path d="M75 106.962C75 106.962 84.282 107.022 88.44 109.518C88.44 109.518 95.79 108.27 98.706 109.518L101.34 99.672C101.34 99.672 104.808 98.004 106.47 100.5C106.47 100.5 107.718 115.5 105.642 116.73C103.566 117.96 87.078 121.722 87.078 121.722C87.078 121.722 76.548 118.554 75 106.962Z" fill="white"/>
</mask>
<g mask="url(#mask8_6171_120191)">
<path opacity="0.2" d="M87.0002 119.178C87.0002 119.178 86.5142 115.32 93.6002 115.818C100.686 116.316 106.2 116.454 106.902 113.124C107.604 109.794 115.374 104.034 112.902 114.816L110.4 125.616L95.4962 126.6L87.0002 119.178Z" fill="black"/>
</g>
<path d="M75 106.962C75 106.962 84.282 107.022 88.44 109.518C88.44 109.518 95.79 108.27 98.706 109.518L101.34 99.672C101.34 99.672 104.808 98.004 106.47 100.5C106.47 100.5 107.718 115.5 105.642 116.73C103.566 117.96 87.078 121.722 87.078 121.722C87.078 121.722 76.548 118.554 75 106.962Z" stroke="#263238" stroke-linecap="round" stroke-linejoin="round"/>
<path d="M100.428 110.256C101.229 110.91 101.918 111.69 102.468 112.566" stroke="#7F7F7F" stroke-width="0.75" stroke-linecap="round" stroke-linejoin="round"/>
<path d="M98.9277 109.614C99.1537 109.613 99.377 109.662 99.5817 109.758" stroke="#7F7F7F" stroke-width="0.75" stroke-linecap="round" stroke-linejoin="round"/>
<path d="M51.3538 126.6C51.0298 123.492 50.1538 117.786 50.4958 113.838" stroke="#7F7F7F" stroke-width="0.75" stroke-linecap="round" stroke-linejoin="round"/>
<path d="M48.8994 119.178C48.8994 119.178 50.5194 128.778 51.2994 128.778" stroke="#7F7F7F" stroke-width="0.75" stroke-linecap="round" stroke-linejoin="round"/>
<path d="M54.7256 154.83V160.218" stroke="#7F7F7F" stroke-width="0.75" stroke-linecap="round" stroke-linejoin="round"/>
<path d="M63.8691 168.384C63.8691 168.384 64.7391 174.474 67.4151 178.236L63.8691 168.384Z" fill="#999999"/>
<path d="M63.8691 168.384C63.8691 168.384 64.7391 174.474 67.4151 178.236" stroke="#263238" stroke-linecap="round" stroke-linejoin="round"/>
<path d="M100.583 98.5381L99.9834 100.77C99.9834 100.77 104.039 99.8101 107.627 101.736L107.261 99.1261C107.261 99.1261 104.939 97.3921 100.583 98.5381Z" fill="#407BFF" stroke="#263238" stroke-linecap="round" stroke-linejoin="round"/>
<path d="M78.4252 156.078C75.5032 157.374 69.7072 158.514 58.3252 157.392" stroke="#7F7F7F" stroke-width="0.75" stroke-linecap="round" stroke-linejoin="round"/>
<path d="M81.3532 153.69C81.1043 154.241 80.7051 154.711 80.2012 155.046" stroke="#7F7F7F" stroke-width="0.75" stroke-linecap="round" stroke-linejoin="round"/>
<path d="M89.3994 109.8L94.1334 112.728" stroke="#7F7F7F" stroke-width="0.75" stroke-linecap="round" stroke-linejoin="round"/>
<path d="M82.0078 134.442C85.0339 130.881 86.9158 126.489 87.4078 121.842" stroke="#7F7F7F" stroke-width="0.75" stroke-linecap="round" stroke-linejoin="round"/>
<path d="M79.2473 133.572C75.4005 138.015 70.5959 141.527 65.1953 143.844" stroke="#7F7F7F" stroke-width="0.75" stroke-linecap="round" stroke-linejoin="round"/>
<path d="M81.5997 130.524C81.1497 131.172 80.6757 131.802 80.1777 132.42" stroke="#7F7F7F" stroke-width="0.75" stroke-linecap="round" stroke-linejoin="round"/>
<path d="M83.0459 128.352C82.8179 128.736 82.5779 129.108 82.3379 129.48" stroke="#7F7F7F" stroke-width="0.75" stroke-linecap="round" stroke-linejoin="round"/>
<path d="M57.1074 151.2C63.1797 153.975 69.9349 154.899 76.5294 153.858" stroke="#7F7F7F" stroke-width="0.75" stroke-linecap="round" stroke-linejoin="round"/>
<path d="M73.3496 76.6921C73.9694 76.4223 74.5604 76.0906 75.1136 75.7021" stroke="#7F7F7F" stroke-width="0.75" stroke-linecap="round" stroke-linejoin="round"/>
<path d="M58.7337 90.8581C58.7337 90.8581 55.4037 84.7501 59.2497 81.4201C62.1837 78.8881 67.4157 78.6481 71.6037 77.3401" stroke="#7F7F7F" stroke-width="0.75" stroke-linecap="round" stroke-linejoin="round"/>
<path d="M61.5353 86.52C61.3482 85.9648 61.3175 85.3688 61.4466 84.7973C61.5758 84.2258 61.8597 83.7008 62.2673 83.28C64.5533 81.108 71.2253 80.88 74.5493 77.574" stroke="#7F7F7F" stroke-width="0.75" stroke-linecap="round" stroke-linejoin="round"/>
<path d="M62.8912 89.346C62.6156 88.9661 62.3708 88.5649 62.1592 88.146" stroke="#7F7F7F" stroke-width="0.75" stroke-linecap="round" stroke-linejoin="round"/>
</svg>
